<svg id="svg" version="1.1" width="570" height="570" xmlns="http://www.w3.org/2000/svg" xmlns:xlink="http://www.w3.org/1999/xlink" style="display: block;"><g id="svgg"><path id="path0" d="M-0.000 157.510 C -0.000 224.523,0.227 254.737,0.732 254.737 C 3.371 254.737,10.526 245.757,10.526 242.445 C 10.526 239.611,11.380 238.425,23.151 224.912 C 50.927 193.025,67.014 167.486,80.364 134.077 C 87.117 117.175,86.719 115.451,74.299 107.847 C 71.356 106.046,66.303 102.504,63.071 99.977 C 41.288 82.949,39.053 81.440,22.105 72.308 C 14.772 68.357,6.798 64.035,4.386 62.703 L -0.000 60.282 -0.000 157.510 M391.579 80.589 C 381.334 86.655,364.243 96.003,346.419 105.286 C 332.826 112.366,331.033 113.661,332.344 115.444 C 335.897 120.274,344.622 129.436,346.992 130.825 C 351.222 133.304,377.406 167.081,376.712 169.163 C 376.588 169.536,373.823 166.172,370.569 161.688 C 365.133 154.198,364.574 153.641,363.699 154.838 C 360.523 159.180,361.463 161.252,371.939 172.993 C 376.951 178.610,381.524 183.926,382.101 184.807 C 383.581 187.066,388.772 201.838,388.772 203.792 C 388.772 205.580,377.867 220.086,371.312 227.018 C 361.965 236.901,361.922 237.484,370.646 236.066 C 373.861 235.543,376.649 235.137,376.842 235.162 C 377.035 235.187,375.298 236.097,372.982 237.183 C 367.583 239.715,368.475 240.181,381.754 241.763 C 393.654 243.181,396.231 243.858,398.324 246.115 L 400.000 247.924 400.000 161.857 C 400.000 114.520,399.921 75.794,399.825 75.800 C 399.728 75.805,396.018 77.960,391.579 80.589 M171.579 111.922 C 169.649 112.446,164.281 114.511,159.649 116.513 C 138.082 125.831,121.552 130.713,111.665 130.686 L 105.787 130.669 106.133 135.509 C 106.391 139.121,106.932 141.034,108.263 143.045 C 111.721 148.271,125.500 177.839,126.667 182.537 C 127.015 183.941,126.577 185.145,124.801 187.665 C 122.776 190.538,122.446 191.627,122.215 196.187 C 121.701 206.381,123.594 209.825,129.714 209.825 C 132.164 209.825,134.583 210.491,137.991 212.105 C 151.615 218.558,165.308 212.911,178.174 195.537 C 183.299 188.615,184.237 188.115,183.618 192.632 C 183.192 195.739,183.217 195.789,185.191 195.789 C 188.219 195.789,188.843 194.482,188.620 188.607 C 188.482 184.978,188.713 183.025,189.376 182.225 C 190.755 180.560,199.728 176.215,201.205 176.496 C 201.893 176.627,203.224 176.759,204.161 176.788 C 205.244 176.822,206.973 178.030,208.894 180.093 C 211.054 182.412,213.009 183.702,215.716 184.596 C 226.938 188.298,260.972 221.174,268.152 235.248 C 269.038 236.984,269.988 237.895,270.913 237.895 C 271.690 237.895,272.502 238.447,272.719 239.123 C 275.028 246.307,277.614 249.326,280.267 247.936 C 283.200 246.399,283.692 246.858,290.919 257.869 C 294.596 263.470,298.159 268.350,298.838 268.714 C 300.293 269.492,358.596 236.449,358.596 234.846 C 358.596 234.261,339.247 196.778,320.141 160.351 C 315.687 151.860,310.645 142.228,308.936 138.947 C 307.227 135.667,305.718 132.802,305.582 132.581 C 305.446 132.360,302.240 132.621,298.457 133.160 C 281.404 135.589,261.765 131.985,234.380 121.401 C 219.967 115.831,211.887 115.404,203.293 119.759 C 199.129 121.869,197.863 121.660,191.579 117.827 L 187.018 115.045 190.175 117.831 C 193.863 121.083,193.444 121.894,187.066 123.851 C 178.856 126.369,174.737 124.293,174.737 117.636 C 174.737 113.677,175.283 112.982,178.396 112.982 C 180.603 112.982,181.116 113.208,180.799 114.035 C 180.475 114.880,181.047 115.085,183.706 115.072 L 187.018 115.057 185.263 113.708 C 181.784 111.034,177.102 110.423,171.579 111.922 M232.148 129.760 C 246.473 135.955,246.402 138.151,231.484 150.567 C 222.874 157.734,221.429 157.945,219.735 152.289 C 218.724 148.917,218.397 148.858,215.789 151.579 C 212.987 154.504,212.392 154.248,212.945 150.351 L 213.417 147.018 211.299 149.445 C 210.135 150.779,209.064 151.727,208.919 151.550 C 208.775 151.373,208.161 150.490,207.553 149.588 C 206.233 147.627,206.001 148.133,205.270 154.561 C 204.798 158.717,204.575 159.027,202.847 157.934 C 202.101 157.462,200.743 158.303,197.705 161.116 C 191.823 166.562,184.780 168.686,180.392 166.338 C 179.264 165.734,179.069 166.066,178.644 169.320 C 177.059 181.469,172.382 190.685,163.843 198.490 C 157.711 204.094,157.206 203.169,160.098 191.642 C 161.934 184.329,161.822 182.850,159.298 181.053 C 155.965 178.679,156.424 176.469,162.248 166.828 C 165.029 162.226,168.458 157.465,169.870 156.248 C 171.281 155.031,172.992 152.949,173.672 151.622 C 177.427 144.299,187.484 138.027,201.804 134.075 C 206.077 132.896,212.393 130.687,215.839 129.166 C 223.664 125.714,222.711 125.679,232.148 129.760 M264.822 142.864 C 281.968 147.394,280.951 146.785,281.404 152.786 C 281.849 158.681,283.498 159.831,283.531 154.269 C 283.552 150.684,284.639 148.070,286.109 148.070 C 290.477 148.070,290.775 163.766,286.607 174.326 C 285.557 176.988,287.725 174.679,289.424 171.326 C 291.591 167.050,292.632 161.285,292.632 153.555 C 292.632 144.157,297.905 145.382,303.756 156.140 C 304.350 157.234,304.523 156.048,304.540 150.759 C 304.570 141.154,305.523 139.562,308.562 144.040 C 313.118 150.753,314.187 156.127,315.019 176.491 C 315.537 189.187,315.824 191.665,317.093 194.386 C 318.809 198.065,318.938 201.337,317.524 205.263 C 316.060 209.327,316.117 209.639,320.351 220.539 C 322.474 226.004,324.211 231.170,324.211 232.018 C 324.211 234.954,315.146 240.680,310.473 240.695 C 309.286 240.699,306.055 241.491,303.293 242.456 C 296.450 244.847,295.515 244.735,292.863 241.206 C 287.915 234.624,289.276 228.772,295.754 228.772 C 302.814 228.772,300.934 224.370,293.491 223.471 C 287.271 222.721,287.169 222.407,291.942 218.701 C 295.590 215.868,296.139 215.154,295.684 213.831 C 295.106 212.150,295.156 195.814,295.747 193.029 C 295.946 192.090,296.269 188.458,296.463 184.959 C 296.925 176.646,295.915 180.334,294.430 192.383 C 292.971 204.221,291.184 209.840,289.360 208.326 C 288.116 207.294,288.174 205.321,289.525 202.707 C 290.934 199.984,290.539 199.648,286.991 200.548 C 284.418 201.202,284.159 201.155,284.583 200.114 C 284.845 199.472,285.310 198.158,285.617 197.193 C 285.925 196.228,286.686 194.254,287.308 192.807 C 287.931 191.360,288.241 190.175,287.999 190.175 C 287.756 190.175,286.467 191.360,285.134 192.807 L 282.710 195.439 281.111 193.593 L 279.511 191.748 275.019 195.553 C 268.815 200.806,264.807 200.862,261.224 195.745 C 260.478 194.680,259.968 194.566,258.482 195.131 C 255.805 196.149,254.426 195.418,252.703 192.068 C 251.857 190.423,250.468 188.772,249.617 188.398 C 248.228 187.789,248.070 187.203,248.070 182.655 C 248.070 176.374,246.869 174.834,241.289 173.960 C 237.453 173.360,235.090 171.555,235.085 169.221 C 235.080 166.946,232.273 163.532,229.070 161.904 L 225.805 160.245 229.856 156.789 C 232.084 154.888,236.415 150.491,239.481 147.018 C 247.927 137.448,245.701 137.813,264.822 142.864 M154.947 184.702 C 159.255 189.009,152.825 202.105,146.402 202.105 C 140.893 202.105,140.286 199.008,144.563 192.712 C 146.106 190.441,147.368 188.330,147.368 188.021 C 147.368 184.408,152.435 182.189,154.947 184.702 M85.838 189.236 C 83.805 191.000,63.158 231.024,63.158 233.202 C 63.158 234.466,63.861 235.364,65.702 236.450 L 68.246 237.951 67.632 243.011 C 65.524 260.376,71.614 270.526,84.142 270.526 L 88.732 270.526 90.020 275.439 C 92.868 286.305,101.823 294.853,112.065 296.483 C 115.450 297.022,115.936 297.512,117.091 301.554 C 119.159 308.792,131.864 319.310,140.097 320.601 C 142.755 321.018,144.427 321.671,144.895 322.476 C 152.111 334.877,168.845 340.890,180.483 335.263 C 185.043 333.059,189.149 332.786,193.684 334.386 C 201.420 337.115,210.211 335.166,217.116 329.189 C 220.312 326.424,220.735 326.258,223.429 326.721 C 230.155 327.877,235.279 326.337,238.859 322.082 C 241.524 318.915,241.121 318.149,238.099 320.640 L 235.497 322.785 234.197 320.733 C 232.338 317.797,227.765 315.789,222.934 315.789 C 220.329 315.789,218.063 315.318,216.411 314.433 C 214.571 313.447,213.435 313.245,212.251 313.695 C 210.815 314.241,210.568 314.068,210.164 312.231 C 209.890 310.980,208.483 309.124,206.644 307.587 C 204.959 306.178,203.212 304.135,202.761 303.046 C 202.309 301.956,200.793 300.371,199.391 299.523 C 197.989 298.675,195.072 296.636,192.908 294.992 C 189.123 292.117,187.010 290.985,181.792 289.039 C 176.446 287.045,172.632 282.127,172.632 277.228 C 172.632 273.353,173.807 273.503,185.441 278.863 L 190.882 281.370 189.790 278.755 C 186.847 271.706,183.694 268.070,180.524 268.070 C 179.634 268.070,176.941 267.242,174.540 266.231 C 170.924 264.707,169.836 264.519,168.196 265.136 C 166.449 265.793,165.499 265.498,160.126 262.633 C 154.738 259.759,153.551 259.392,149.842 259.453 C 144.229 259.545,142.364 258.425,138.590 252.695 C 129.803 239.358,119.298 237.006,105.614 245.313 C 95.988 251.157,89.825 247.108,89.825 234.941 C 89.825 232.827,89.193 229.261,88.421 227.018 C 86.534 221.532,86.787 217.742,89.148 216.140 C 89.433 215.947,88.940 212.000,88.053 207.368 C 87.138 202.590,86.722 198.844,87.092 198.709 C 89.932 197.672,90.805 192.244,88.575 189.490 C 87.357 187.985,87.289 187.979,85.838 189.236 M180.955 234.363 L 179.298 235.743 181.661 235.766 C 183.695 235.786,183.971 235.990,183.646 237.233 C 183.438 238.026,183.774 239.556,184.391 240.631 C 185.447 242.472,185.423 242.733,183.985 245.061 C 180.873 250.096,182.936 254.131,189.050 254.969 C 191.399 255.291,194.560 256.719,199.406 259.646 C 207.673 264.640,207.719 264.648,207.719 261.053 C 207.719 258.259,208.237 257.641,209.510 258.914 C 210.290 259.693,215.182 260.139,215.831 259.490 C 218.736 256.586,206.099 241.554,199.790 240.408 C 197.997 240.082,195.867 238.786,193.291 236.453 C 188.839 232.421,184.224 231.639,180.955 234.363 M225.965 234.541 C 225.965 237.245,229.131 244.235,232.080 248.044 C 242.817 261.907,256.691 278.149,259.936 280.652 C 270.482 288.788,273.995 295.048,271.581 301.398 C 270.397 304.512,271.899 302.758,273.689 298.937 L 275.381 295.326 280.165 295.806 C 285.904 296.382,291.355 294.212,294.490 290.102 C 297.388 286.302,295.963 286.539,290.708 290.732 L 285.880 294.584 282.603 291.678 C 276.822 286.552,276.490 282.870,281.102 275.003 C 285.905 266.810,284.530 262.866,278.177 266.614 C 272.564 269.926,269.441 267.520,273.809 263.249 C 275.036 262.050,275.904 260.959,275.739 260.824 C 275.574 260.690,273.626 259.560,271.410 258.313 L 267.382 256.045 268.479 253.922 C 271.459 248.161,267.882 251.369,262.309 259.457 C 258.833 264.501,258.802 264.518,257.792 261.842 C 257.208 260.297,256.225 259.557,253.590 258.682 C 251.698 258.053,248.514 256.438,246.516 255.092 C 242.917 252.669,241.678 252.702,242.553 255.200 C 242.802 255.910,241.075 253.820,238.716 250.556 C 236.356 247.292,233.668 244.225,232.743 243.740 C 231.731 243.209,230.438 241.323,229.495 239.001 C 227.867 234.990,225.965 232.586,225.965 234.541 M148.907 250.806 C 152.301 254.135,154.475 254.788,157.239 253.309 C 159.499 252.099,158.828 251.512,153.381 249.929 C 150.512 249.095,147.591 248.225,146.890 247.995 C 146.188 247.766,147.096 249.030,148.907 250.806 M129.351 252.570 C 133.466 253.247,135.210 254.890,135.746 258.596 L 136.152 261.404 134.795 258.596 L 133.437 255.789 133.385 258.321 C 133.337 260.655,132.990 261.063,128.947 263.530 C 126.535 265.002,123.486 267.133,122.172 268.265 C 116.772 272.918,108.152 266.592,112.502 261.169 C 113.033 260.506,114.145 260.366,116.298 260.689 L 119.342 261.145 117.095 257.493 C 113.797 252.134,117.544 250.629,129.351 252.570 M204.323 269.156 C 202.626 272.880,203.405 275.247,206.989 277.261 C 208.436 278.074,217.266 286.754,226.611 296.548 C 243.171 313.904,243.643 314.330,245.196 313.313 C 246.096 312.723,249.893 311.974,253.924 311.590 C 263.691 310.659,266.667 308.929,266.667 304.182 C 266.667 302.678,266.423 302.402,265.439 302.792 C 261.317 304.421,258.977 303.897,251.228 299.607 C 249.877 298.860,247.486 298.247,245.914 298.247 C 239.856 298.244,232.321 293.951,229.792 289.059 C 229.215 287.944,227.563 286.429,226.121 285.694 C 222.871 284.036,217.051 277.954,214.433 273.481 C 211.341 268.198,205.833 265.842,204.323 269.156 M161.291 271.963 C 161.739 272.946,162.105 274.841,162.105 276.173 C 162.105 277.506,162.421 278.596,162.807 278.596 C 163.193 278.596,163.509 279.489,163.509 280.579 C 163.509 283.104,160.741 285.815,158.490 285.496 C 156.815 285.259,156.739 284.894,157.602 281.238 C 157.974 279.660,157.615 278.878,155.589 276.852 C 152.561 273.824,151.229 273.631,151.891 276.316 C 153.220 281.714,153.212 281.759,150.474 284.163 C 146.979 287.231,138.188 286.393,138.279 283.000 C 138.345 280.577,147.642 271.436,150.629 270.859 C 156.840 269.659,160.410 270.029,161.291 271.963 M175.603 295.700 C 176.399 296.921,176.233 304.480,175.376 306.082 C 174.653 307.433,174.515 307.364,172.822 304.808 C 171.838 303.321,170.325 301.316,169.462 300.351 C 166.474 297.014,166.043 295.503,167.864 294.754 C 169.788 293.962,174.876 294.584,175.603 295.700 M195.946 308.817 C 208.317 320.479,209.059 322.118,203.659 325.861 C 200.332 328.166,198.255 328.219,196.824 326.036 C 195.887 324.605,195.314 324.408,193.004 324.718 L 190.286 325.082 188.773 319.910 C 187.941 317.065,186.653 312.730,185.911 310.277 C 182.364 298.556,184.700 298.216,195.946 308.817 M165.890 303.566 C 166.624 305.480,166.390 305.896,163.495 307.812 C 160.476 309.809,159.605 309.718,160.316 307.479 C 161.519 303.687,164.999 301.244,165.890 303.566 " stroke="none" fill="#cdb380" fill-rule="evenodd"></path><path id="path1" d="M0.168 30.270 L 0.351 60.541 17.193 69.610 C 38.872 81.284,40.730 82.513,63.071 99.977 C 66.303 102.504,71.356 106.046,74.299 107.847 C 86.719 115.451,87.117 117.175,80.364 134.077 C 67.014 167.486,50.927 193.025,23.151 224.912 C 11.380 238.425,10.526 239.611,10.526 242.445 C 10.526 245.757,3.371 254.737,0.732 254.737 C 0.229 254.737,0.000 277.426,0.000 327.368 L 0.000 400.000 200.000 400.000 L 400.000 400.000 400.000 323.962 L 400.000 247.924 398.324 246.115 C 396.231 243.858,393.654 243.181,381.754 241.763 C 368.475 240.181,367.583 239.715,372.982 237.183 C 375.298 236.097,377.035 235.187,376.842 235.162 C 376.649 235.137,373.861 235.543,370.646 236.066 C 361.922 237.484,361.965 236.901,371.312 227.018 C 377.867 220.086,388.772 205.580,388.772 203.792 C 388.772 201.838,383.581 187.066,382.101 184.807 C 381.524 183.926,376.951 178.610,371.939 172.993 C 361.463 161.252,360.523 159.180,363.699 154.838 C 364.574 153.641,365.133 154.198,370.569 161.688 C 373.823 166.172,376.588 169.536,376.712 169.163 C 377.406 167.081,351.222 133.304,346.992 130.825 C 344.622 129.436,335.897 120.274,332.344 115.444 C 331.033 113.661,332.826 112.366,346.419 105.288 C 364.212 96.022,379.721 87.548,391.053 80.901 L 400.000 75.652 400.000 37.826 L 400.000 0.000 199.993 0.000 L -0.015 0.000 0.168 30.270 M180.566 111.618 C 182.185 112.026,184.298 112.967,185.263 113.708 L 187.018 115.057 183.706 115.072 C 181.047 115.085,180.475 114.880,180.799 114.035 C 181.116 113.208,180.603 112.982,178.396 112.982 C 175.283 112.982,174.737 113.677,174.737 117.636 C 174.737 124.293,178.856 126.369,187.066 123.851 C 193.444 121.894,193.863 121.083,190.175 117.831 L 187.018 115.045 191.579 117.827 C 197.863 121.660,199.129 121.869,203.293 119.759 C 211.887 115.404,219.967 115.831,234.380 121.401 C 261.765 131.985,281.404 135.589,298.457 133.160 C 302.240 132.621,305.446 132.360,305.582 132.581 C 305.718 132.802,307.227 135.667,308.936 138.947 C 310.645 142.228,315.687 151.860,320.141 160.351 C 339.247 196.778,358.596 234.261,358.596 234.846 C 358.596 236.449,300.293 269.492,298.838 268.714 C 298.159 268.350,294.596 263.470,290.919 257.869 C 283.692 246.858,283.200 246.399,280.267 247.936 C 277.614 249.326,275.028 246.307,272.719 239.123 C 272.502 238.447,271.690 237.895,270.913 237.895 C 269.988 237.895,269.038 236.984,268.152 235.248 C 260.972 221.174,226.938 188.298,215.716 184.596 C 213.009 183.702,211.054 182.412,208.894 180.093 C 206.973 178.030,205.244 176.822,204.161 176.788 C 203.224 176.759,201.893 176.627,201.205 176.496 C 199.728 176.215,190.755 180.560,189.376 182.225 C 188.713 183.025,188.482 184.978,188.620 188.607 C 188.843 194.482,188.219 195.789,185.191 195.789 C 183.217 195.789,183.192 195.739,183.618 192.632 C 184.237 188.115,183.299 188.615,178.174 195.537 C 165.308 212.911,151.615 218.558,137.991 212.105 C 134.583 210.491,132.164 209.825,129.714 209.825 C 123.594 209.825,121.701 206.381,122.215 196.187 C 122.446 191.627,122.776 190.538,124.801 187.665 C 126.577 185.145,127.015 183.941,126.667 182.537 C 125.500 177.839,111.721 148.271,108.263 143.045 C 106.932 141.034,106.391 139.121,106.133 135.509 L 105.787 130.669 111.665 130.686 C 121.552 130.713,138.082 125.831,159.649 116.513 C 172.146 111.113,175.472 110.335,180.566 111.618 M215.839 129.166 C 212.393 130.687,206.077 132.896,201.804 134.075 C 187.484 138.027,177.427 144.299,173.672 151.622 C 172.992 152.949,171.281 155.031,169.870 156.248 C 168.458 157.465,165.029 162.226,162.248 166.828 C 156.424 176.469,155.965 178.679,159.298 181.053 C 161.822 182.850,161.934 184.329,160.098 191.642 C 157.206 203.169,157.711 204.094,163.843 198.490 C 172.382 190.685,177.059 181.469,178.644 169.320 C 179.069 166.066,179.264 165.734,180.392 166.338 C 184.780 168.686,191.823 166.562,197.705 161.116 C 200.743 158.303,202.101 157.462,202.847 157.934 C 204.575 159.027,204.798 158.717,205.270 154.561 C 206.001 148.133,206.233 147.627,207.553 149.588 C 208.161 150.490,208.775 151.373,208.919 151.550 C 209.064 151.727,210.135 150.779,211.299 149.445 L 213.417 147.018 212.945 150.351 C 212.392 154.248,212.987 154.504,215.789 151.579 C 218.397 148.858,218.724 148.917,219.735 152.289 C 221.429 157.945,222.874 157.734,231.484 150.567 C 246.402 138.151,246.473 135.955,232.148 129.760 C 222.711 125.679,223.664 125.714,215.839 129.166 M246.563 139.849 C 245.734 140.318,242.547 143.544,239.481 147.018 C 236.415 150.491,232.084 154.888,229.856 156.789 L 225.805 160.245 229.070 161.904 C 232.273 163.532,235.080 166.946,235.085 169.221 C 235.090 171.555,237.453 173.360,241.289 173.960 C 246.869 174.834,248.070 176.374,248.070 182.655 C 248.070 187.203,248.228 187.789,249.617 188.398 C 250.468 188.772,251.857 190.423,252.703 192.068 C 254.426 195.418,255.805 196.149,258.482 195.131 C 259.968 194.566,260.478 194.680,261.224 195.745 C 264.807 200.862,268.815 200.806,275.019 195.553 L 279.511 191.748 281.111 193.593 L 282.710 195.439 285.134 192.807 C 286.467 191.360,287.756 190.175,287.999 190.175 C 288.241 190.175,287.931 191.360,287.308 192.807 C 286.686 194.254,285.925 196.228,285.617 197.193 C 285.310 198.158,284.845 199.472,284.583 200.114 C 284.159 201.155,284.418 201.202,286.991 200.548 C 290.539 199.648,290.934 199.984,289.525 202.707 C 288.174 205.321,288.116 207.294,289.360 208.326 C 291.184 209.840,292.971 204.221,294.430 192.383 C 295.915 180.334,296.925 176.646,296.463 184.959 C 296.269 188.458,295.946 192.090,295.747 193.029 C 295.156 195.814,295.106 212.150,295.684 213.831 C 296.139 215.154,295.590 215.868,291.942 218.701 C 287.169 222.407,287.271 222.721,293.491 223.471 C 300.934 224.370,302.814 228.772,295.754 228.772 C 289.276 228.772,287.915 234.624,292.863 241.206 C 295.515 244.735,296.450 244.847,303.293 242.456 C 306.055 241.491,309.286 240.699,310.473 240.695 C 315.146 240.680,324.211 234.954,324.211 232.018 C 324.211 231.170,322.474 226.004,320.351 220.539 C 316.117 209.639,316.060 209.327,317.524 205.263 C 318.938 201.337,318.809 198.065,317.093 194.386 C 315.824 191.665,315.537 189.187,315.019 176.491 C 314.187 156.127,313.118 150.753,308.562 144.040 C 305.523 139.562,304.570 141.154,304.540 150.759 C 304.523 156.048,304.350 157.234,303.756 156.140 C 297.905 145.382,292.632 144.157,292.632 153.555 C 292.632 161.285,291.591 167.050,289.424 171.326 C 287.725 174.679,285.557 176.988,286.607 174.326 C 290.775 163.766,290.477 148.070,286.109 148.070 C 284.639 148.070,283.552 150.684,283.531 154.269 C 283.498 159.831,281.849 158.681,281.404 152.786 C 280.951 146.785,281.968 147.394,264.822 142.864 C 248.661 138.595,248.754 138.610,246.563 139.849 M148.053 185.660 C 147.676 186.650,147.368 187.712,147.368 188.021 C 147.368 188.330,146.106 190.441,144.563 192.712 C 140.286 199.008,140.893 202.105,146.402 202.105 C 151.874 202.105,155.789 196.550,155.789 188.787 C 155.789 183.682,149.735 181.234,148.053 185.660 M89.825 193.712 C 89.825 196.159,88.764 198.099,87.092 198.709 C 86.722 198.844,87.138 202.590,88.053 207.368 C 88.940 212.000,89.433 215.947,89.148 216.140 C 86.787 217.742,86.534 221.532,88.421 227.018 C 89.193 229.261,89.825 232.827,89.825 234.941 C 89.825 247.108,95.988 251.157,105.614 245.313 C 119.298 237.006,129.803 239.358,138.590 252.695 C 142.364 258.425,144.229 259.545,149.842 259.453 C 153.551 259.392,154.738 259.759,160.126 262.633 C 165.499 265.498,166.449 265.793,168.196 265.136 C 169.836 264.519,170.924 264.707,174.540 266.231 C 176.941 267.242,179.634 268.070,180.524 268.070 C 183.694 268.070,186.847 271.706,189.790 278.755 L 190.882 281.370 185.441 278.863 C 173.807 273.503,172.632 273.353,172.632 277.228 C 172.632 282.127,176.446 287.045,181.792 289.039 C 187.010 290.985,189.123 292.117,192.908 294.992 C 195.072 296.636,197.989 298.675,199.391 299.523 C 200.793 300.371,202.309 301.956,202.761 303.046 C 203.212 304.135,204.959 306.178,206.644 307.587 C 208.483 309.124,209.890 310.980,210.164 312.231 C 210.568 314.068,210.815 314.241,212.251 313.695 C 213.435 313.245,214.571 313.447,216.411 314.433 C 218.063 315.318,220.329 315.789,222.934 315.789 C 227.765 315.789,232.338 317.797,234.197 320.733 L 235.497 322.785 238.099 320.640 C 241.121 318.149,241.524 318.915,238.859 322.082 C 235.279 326.337,230.155 327.877,223.429 326.721 C 220.735 326.258,220.312 326.424,217.116 329.189 C 210.211 335.166,201.420 337.115,193.684 334.386 C 189.149 332.786,185.043 333.059,180.483 335.263 C 168.845 340.890,152.111 334.877,144.895 322.476 C 144.427 321.671,142.755 321.018,140.097 320.601 C 131.864 319.310,119.159 308.792,117.091 301.554 C 115.936 297.512,115.450 297.022,112.065 296.483 C 101.823 294.853,92.868 286.305,90.020 275.439 L 88.732 270.526 84.142 270.526 C 71.614 270.526,65.524 260.376,67.632 243.011 L 68.246 237.951 65.702 236.450 C 63.861 235.364,63.158 234.466,63.158 233.202 C 63.158 231.024,83.805 191.000,85.838 189.236 C 87.839 187.501,89.825 189.730,89.825 193.712 M193.291 236.453 C 195.867 238.786,197.997 240.082,199.790 240.408 C 206.099 241.554,218.736 256.586,215.831 259.490 C 215.182 260.139,210.290 259.693,209.510 258.914 C 208.237 257.641,207.719 258.259,207.719 261.053 C 207.719 264.648,207.673 264.640,199.406 259.646 C 194.560 256.719,191.399 255.291,189.050 254.969 C 182.936 254.131,180.873 250.096,183.985 245.061 C 185.423 242.733,185.447 242.472,184.391 240.631 C 183.774 239.556,183.438 238.026,183.646 237.233 C 183.971 235.990,183.695 235.786,181.661 235.766 L 179.298 235.743 180.955 234.363 C 184.224 231.639,188.839 232.421,193.291 236.453 M229.495 239.001 C 230.438 241.323,231.731 243.209,232.743 243.740 C 233.668 244.225,236.356 247.292,238.716 250.556 C 241.075 253.820,242.802 255.910,242.553 255.200 C 241.678 252.702,242.917 252.669,246.516 255.092 C 248.514 256.438,251.698 258.053,253.590 258.682 C 256.225 259.557,257.208 260.297,257.792 261.842 C 258.802 264.518,258.833 264.501,262.309 259.457 C 267.882 251.369,271.459 248.161,268.479 253.922 L 267.382 256.045 271.410 258.313 C 273.626 259.560,275.574 260.690,275.739 260.824 C 275.904 260.959,275.036 262.050,273.809 263.249 C 269.441 267.520,272.564 269.926,278.177 266.614 C 284.530 262.866,285.905 266.810,281.102 275.003 C 276.490 282.870,276.822 286.552,282.603 291.678 L 285.880 294.584 290.708 290.732 C 295.963 286.539,297.388 286.302,294.490 290.102 C 291.355 294.212,285.904 296.382,280.165 295.806 L 275.381 295.326 273.689 298.937 C 271.899 302.758,270.397 304.512,271.581 301.398 C 273.995 295.048,270.482 288.788,259.936 280.652 C 256.691 278.149,242.817 261.907,232.080 248.044 C 229.131 244.235,225.965 237.245,225.965 234.541 C 225.965 232.586,227.867 234.990,229.495 239.001 M153.381 249.929 C 158.828 251.512,159.499 252.099,157.239 253.309 C 154.475 254.788,152.301 254.135,148.907 250.806 C 147.096 249.030,146.188 247.766,146.890 247.995 C 147.591 248.225,150.512 249.095,153.381 249.929 M116.155 252.885 C 114.902 253.801,114.942 253.993,117.095 257.493 L 119.342 261.145 116.298 260.689 C 114.145 260.366,113.033 260.506,112.502 261.169 C 108.152 266.592,116.772 272.918,122.172 268.265 C 123.486 267.133,126.535 265.002,128.947 263.530 C 132.990 261.063,133.337 260.655,133.385 258.321 L 133.437 255.789 134.795 258.596 L 136.152 261.404 135.746 258.596 C 135.523 257.053,134.754 255.190,134.038 254.458 C 131.758 252.126,118.757 250.982,116.155 252.885 M209.769 268.744 C 211.499 269.626,213.171 271.324,214.433 273.481 C 217.051 277.954,222.871 284.036,226.121 285.694 C 227.563 286.429,229.215 287.944,229.792 289.059 C 232.321 293.951,239.856 298.244,245.914 298.247 C 247.486 298.247,249.877 298.860,251.228 299.607 C 258.977 303.897,261.317 304.421,265.439 302.792 C 266.423 302.402,266.667 302.678,266.667 304.182 C 266.667 308.929,263.691 310.659,253.924 311.590 C 249.893 311.974,246.096 312.723,245.196 313.313 C 243.643 314.330,243.171 313.904,226.611 296.548 C 217.266 286.754,208.436 278.074,206.989 277.261 C 203.405 275.247,202.626 272.880,204.323 269.156 C 205.302 267.008,206.229 266.938,209.769 268.744 M150.629 270.859 C 147.642 271.436,138.345 280.577,138.279 283.000 C 138.188 286.393,146.979 287.231,150.474 284.163 C 153.212 281.759,153.220 281.714,151.891 276.316 C 151.229 273.631,152.561 273.824,155.589 276.852 C 157.615 278.878,157.974 279.660,157.602 281.238 C 156.739 284.894,156.815 285.259,158.490 285.496 C 160.741 285.815,163.509 283.104,163.509 280.579 C 163.509 279.489,163.193 278.596,162.807 278.596 C 162.421 278.596,162.105 277.506,162.105 276.173 C 162.105 270.341,159.517 269.142,150.629 270.859 M167.864 294.754 C 166.043 295.503,166.474 297.014,169.462 300.351 C 170.325 301.316,171.838 303.321,172.822 304.808 C 175.087 308.227,176.146 306.871,176.130 300.572 C 176.115 294.956,172.890 292.686,167.864 294.754 M184.561 303.435 C 184.561 304.745,185.169 307.824,185.911 310.277 C 186.653 312.730,187.941 317.065,188.773 319.910 L 190.286 325.082 193.004 324.718 C 195.314 324.408,195.887 324.605,196.824 326.036 C 198.255 328.219,200.332 328.166,203.659 325.861 C 209.059 322.118,208.317 320.479,195.946 308.817 C 186.874 300.265,184.561 299.172,184.561 303.435 M162.185 304.268 C 160.576 306.314,159.673 308.679,160.273 309.278 C 160.784 309.790,166.316 306.157,166.316 305.311 C 166.316 302.198,164.228 301.672,162.185 304.268 " stroke="none" fill="transparent" fill-rule="evenodd"></path></g></svg>