<svg id="svg" version="1.1" width="521" height="500" xmlns="http://www.w3.org/2000/svg" xmlns:xlink="http://www.w3.org/1999/xlink" style="display: block;"><g id="svgg"><path id="path0" d="M70.250 24.167 C 59.897 25.824,41.829 33.970,28.407 43.032 C 27.351 43.745,23.466 46.275,19.772 48.654 C 4.892 58.242,-0.252 72.716,3.498 94.446 C 4.895 102.539,10.851 124.796,12.345 127.503 C 14.389 131.207,13.755 142.657,11.228 147.661 C 8.154 153.749,8.154 159.891,11.228 166.255 C 14.012 172.019,14.169 179.822,11.640 186.817 C 7.210 199.069,7.839 211.915,13.762 230.144 C 33.674 291.429,79.911 328.774,124.760 319.796 C 151.025 314.538,180.595 278.722,190.411 240.277 C 199.632 204.160,198.658 178.122,187.636 166.097 C 186.413 164.763,184.789 162.863,184.028 161.874 L 182.642 160.077 182.969 161.996 C 183.149 163.052,183.539 164.490,183.835 165.193 C 184.288 166.266,183.615 166.163,179.629 164.553 C 167.663 159.720,158.901 163.099,141.746 179.163 C 109.828 209.052,87.502 213.065,52.015 195.292 C 42.239 190.395,42.085 190.049,49.328 189.215 C 58.774 188.128,60.582 188.366,68.330 191.707 C 79.950 196.719,84.621 198.936,84.280 199.277 C 83.927 199.630,73.307 197.701,71.246 196.911 C 70.527 196.635,69.512 196.673,68.990 196.996 C 66.882 198.299,84.075 202.693,91.238 202.682 C 97.437 202.672,107.427 199.815,113.244 196.388 C 119.251 192.848,128.987 185.746,130.610 183.721 C 131.777 182.264,131.083 182.635,120.921 188.903 C 115.554 192.214,103.708 197.630,103.120 197.042 C 102.811 196.733,110.478 192.078,113.062 191.007 C 113.806 190.698,114.842 190.094,115.365 189.664 C 115.887 189.234,119.106 186.719,122.518 184.076 C 128.172 179.696,138.943 168.608,138.958 167.151 C 138.968 166.082,135.843 168.176,130.214 173.012 C 122.155 179.935,118.977 182.315,115.265 184.209 C 110.614 186.582,110.641 185.837,115.351 181.921 C 117.570 180.076,122.322 175.948,125.912 172.747 C 141.454 158.890,153.551 151.689,153.551 156.294 C 153.551 156.868,150.597 160.891,146.987 165.233 C 132.115 183.122,132.303 182.634,144.643 171.325 C 151.340 165.188,159.233 160.143,164.723 158.491 C 172.187 156.244,173.469 154.817,177.649 144.086 C 179.749 138.696,179.864 132.393,177.907 129.924 C 177.481 129.386,177.341 128.737,177.595 128.483 C 178.310 127.768,175.847 123.499,175.015 124.013 C 174.611 124.262,174.275 125.915,174.268 127.684 C 174.262 129.454,174.003 130.506,173.693 130.022 C 171.909 127.240,158.870 128.327,150.096 131.989 C 143.480 134.750,131.519 136.964,125.947 136.459 C 115.516 135.513,113.518 130.747,119.947 122.148 C 122.076 119.300,121.043 119.363,116.158 122.379 C 110.721 125.735,110.238 125.777,110.824 122.849 C 111.233 120.800,111.099 120.583,109.576 120.831 C 100.998 122.229,104.623 98.354,114.505 88.366 C 125.274 77.482,140.725 80.415,145.434 94.237 C 147.501 100.302,145.746 102.230,134.790 105.934 C 125.996 108.906,117.442 113.254,115.664 115.655 C 113.494 118.584,114.402 118.500,120.683 115.191 C 129.985 110.290,136.850 109.958,145.639 113.981 C 152.379 117.067,160.222 115.882,159.934 111.822 C 159.840 110.507,160.540 109.060,161.952 107.648 C 164.753 104.847,165.014 102.592,165.257 79.079 C 165.478 57.678,164.969 54.848,161.952 60.708 C 159.784 64.920,159.513 78.407,161.409 87.683 C 161.525 88.248,161.043 88.581,160.291 88.455 C 159.421 88.310,158.802 88.899,158.481 90.177 C 157.770 93.011,156.847 91.921,155.836 87.054 C 150.219 59.998,107.788 54.849,96.435 79.846 C 91.934 89.757,90.548 115.121,93.898 126.290 C 95.313 131.005,95.969 134.939,95.969 138.696 C 95.969 143.370,96.452 148.319,98.577 165.451 C 99.203 170.491,96.120 174.280,91.394 174.280 C 88.290 174.280,87.828 172.971,87.185 162.364 C 85.332 131.818,83.392 122.281,75.627 105.566 C 61.862 75.933,43.892 69.170,23.225 85.844 C 18.806 89.409,19.079 87.790,23.608 83.565 C 31.266 76.424,40.058 72.937,50.404 72.937 L 56.768 72.937 54.871 70.142 C 53.828 68.606,52.975 67.022,52.975 66.624 C 52.975 66.226,51.939 63.539,50.672 60.653 C 47.285 52.936,47.503 51.443,52.783 46.165 C 63.115 35.838,73.278 30.146,83.729 28.835 C 88.203 28.274,95.202 26.121,95.202 25.306 C 95.202 23.102,80.965 22.453,70.250 24.167 M99.199 64.406 C 92.415 67.923,85.491 77.236,82.499 86.868 C 81.159 91.179,81.140 91.198,78.906 90.420 C 74.609 88.922,74.811 90.646,80.060 100.262 C 82.784 105.252,85.348 109.447,85.758 109.584 C 86.525 109.840,89.019 101.438,90.599 93.282 C 92.012 85.984,95.362 76.710,98.011 72.764 L 100.447 69.135 97.824 71.228 C 96.382 72.379,95.202 73.580,95.202 73.896 C 95.202 74.213,94.856 74.472,94.434 74.472 C 92.695 74.472,93.911 72.350,98.037 68.181 C 102.799 63.368,103.102 62.382,99.199 64.406 M263.168 70.618 C 248.562 73.698,227.993 82.862,220.325 89.707 C 209.774 99.124,204.998 122.594,208.425 148.177 C 211.258 169.321,210.486 176.198,204.092 186.781 C 198.196 196.539,197.725 202.577,202.132 211.888 C 205.419 218.834,205.736 231.809,202.746 237.029 C 200.927 240.205,200.918 240.311,202.314 241.854 C 203.723 243.411,203.681 243.493,199.026 248.203 C 188.220 259.140,175.048 290.429,175.048 305.161 C 175.048 329.532,186.257 340.863,216.891 347.455 C 225.758 349.363,234.914 351.411,237.236 352.006 C 242.610 353.383,287.147 362.255,304.798 365.466 C 327.564 369.606,336.460 367.933,346.287 357.667 C 359.515 343.847,360.978 329.007,353.394 285.605 C 348.908 259.935,349.536 254.165,357.798 245.124 C 365.346 236.866,366.841 230.287,364.271 216.636 C 362.464 207.035,363.420 201.969,369.877 186.943 C 378.825 166.119,381.574 154.656,381.574 138.166 C 381.574 127.866,380.995 127.010,372.326 124.500 C 369.178 123.588,365.566 122.515,364.299 122.115 C 356.194 119.556,345.489 118.145,345.489 119.637 C 345.489 119.986,347.751 125.427,350.514 131.729 C 353.278 138.030,356.373 145.086,357.392 147.409 C 358.412 149.731,360.469 154.358,361.964 157.690 C 366.883 168.649,365.136 167.313,355.050 152.399 C 351.337 146.910,347.581 141.495,346.703 140.366 C 345.824 139.237,344.069 136.823,342.802 135.002 C 331.014 118.054,321.875 114.572,311.472 123.065 C 307.843 126.027,305.812 126.453,307.938 123.805 C 309.247 122.176,310.940 119.206,310.940 118.540 C 310.940 118.275,310.089 118.616,309.048 119.297 C 305.255 121.783,305.386 120.505,309.425 115.617 C 313.279 110.954,312.866 110.421,307.879 113.621 C 303.179 116.638,299.203 121.139,296.907 126.044 C 294.859 130.420,294.279 130.599,293.615 127.063 C 292.954 123.536,291.747 123.613,291.747 127.182 L 291.747 129.988 290.115 128.526 L 288.484 127.063 289.060 129.750 C 289.377 131.228,290.488 134.856,291.528 137.812 C 292.568 140.768,293.604 143.978,293.830 144.946 C 294.442 147.565,295.468 146.735,298.294 141.337 C 300.912 136.336,303.250 133.280,302.166 136.276 C 299.378 143.979,295.574 164.317,294.410 177.735 C 293.475 188.519,291.330 192.706,286.741 192.706 C 281.589 192.706,281.173 190.927,283.736 179.822 C 286.341 168.530,287.158 127.452,284.930 119.770 C 282.043 109.819,270.759 104.997,258.620 108.526 C 253.029 110.151,230.506 127.063,222.825 135.403 C 219.254 139.281,218.810 139.546,218.810 137.804 C 218.810 131.620,250.945 107.230,265.259 102.550 C 267.370 101.860,269.616 101.107,270.250 100.878 C 270.956 100.622,268.937 99.279,265.032 97.407 C 250.823 90.594,256.011 82.427,279.846 74.084 C 287.144 71.529,286.836 71.733,285.620 70.268 C 284.243 68.609,271.777 68.803,263.168 70.618 M53.876 100.804 C 63.085 105.309,70.595 116.522,70.625 125.808 L 70.633 128.392 66.326 127.854 C 63.957 127.558,59.232 126.481,55.826 125.462 C 44.968 122.212,36.173 123.278,38.145 127.604 C 39.309 130.161,38.391 131.430,33.831 133.566 C 29.072 135.795,28.903 135.649,30.487 130.696 L 31.754 126.734 29.825 125.216 L 27.896 123.699 29.292 115.883 C 32.189 99.657,40.772 94.392,53.876 100.804 M254.127 125.040 C 254.127 126.116,239.780 131.015,238.978 130.213 C 238.261 129.496,238.716 129.264,245.683 126.797 C 252.720 124.304,254.127 124.012,254.127 125.040 M270.737 131.224 C 274.580 133.567,275.906 138.127,275.457 147.452 C 274.853 159.995,272.817 161.416,261.390 157.264 C 253.682 154.464,241.055 153.647,237.403 155.712 C 234.811 157.177,230.361 155.502,230.942 153.280 C 234.205 140.804,261.573 125.636,270.737 131.224 M78.951 132.630 C 79.332 133.369,79.701 136.046,79.769 138.580 C 79.838 141.113,80.714 151.305,81.716 161.228 C 83.701 180.894,83.709 180.132,81.529 178.965 C 80.276 178.295,79.921 177.038,79.506 171.802 C 79.230 168.309,78.515 159.578,77.919 152.399 C 76.935 140.561,76.512 133.413,76.704 131.862 C 76.836 130.793,78.252 131.276,78.951 132.630 M61.236 134.893 C 66.939 138.590,67.468 142.871,62.565 145.648 C 58.743 147.813,58.981 147.826,56.423 145.298 C 48.111 137.079,51.917 128.850,61.236 134.893 M328.983 145.023 C 335.640 149.550,341.391 156.462,345.886 165.337 C 352.196 177.795,349.931 182.495,340.683 176.134 C 334.052 171.573,324.970 168.906,316.067 168.906 C 307.966 168.906,306.603 166.059,309.421 155.023 C 313.185 140.283,318.225 137.706,328.983 145.023 M113.244 146.339 C 124.291 155.148,124.206 157.612,112.631 163.934 C 106.480 167.293,106.818 167.468,105.840 160.411 C 105.156 155.476,105.252 154.331,106.672 150.436 C 107.904 147.057,108.100 145.570,107.516 144.035 C 106.440 141.203,107.172 141.498,113.244 146.339 M103.235 161.791 C 104.306 163.366,105.182 164.939,105.182 165.286 C 105.182 165.633,106.046 167.187,107.102 168.741 C 109.695 172.558,109.566 173.253,105.553 177.099 C 101.000 181.461,100.884 181.405,100.305 174.548 C 99.053 159.747,99.759 156.675,103.235 161.791 M263.179 161.853 C 265.097 162.566,266.795 163.533,266.952 164.003 C 267.313 165.088,247.488 176.583,245.255 176.583 C 244.549 176.583,244.947 164.905,245.701 163.496 C 247.809 159.557,255.139 158.868,263.179 161.853 M280.630 174.108 C 281.054 175.928,280.667 175.960,275.432 174.541 C 273.387 173.987,273.818 171.945,276.581 169.095 L 279.073 166.523 279.648 169.442 C 279.965 171.047,280.407 173.147,280.630 174.108 M303.580 171.903 C 304.307 172.707,305.349 175.212,305.895 177.469 C 306.441 179.727,307.627 183.401,308.530 185.633 C 311.416 192.765,309.339 192.272,303.553 184.453 C 301.131 181.180,298.479 177.952,297.659 177.278 C 296.221 176.097,296.216 175.954,297.500 173.248 C 299.021 170.042,301.416 169.512,303.580 171.903 M319.613 172.420 C 328.094 174.617,337.453 180.511,342.471 186.813 C 347.095 192.620,346.783 193.132,338.772 192.876 C 325.682 192.457,322.818 190.655,316.832 179.065 C 312.132 169.965,311.938 170.431,319.613 172.420 M276.869 186.919 C 276.776 194.154,276.769 194.178,275.257 192.674 C 273.390 190.816,273.310 186.581,275.065 182.534 C 276.836 178.449,276.975 178.786,276.869 186.919 M76.224 189.938 C 83.618 191.704,85.118 192.297,84.290 193.126 C 83.835 193.580,66.202 189.298,65.456 188.553 C 64.533 187.629,68.928 188.195,76.224 189.938 M184.778 200.960 C 183.791 227.657,176.054 250.133,160.776 270.689 C 151.375 283.339,132.956 298.656,127.147 298.656 C 125.478 298.656,124.050 299.288,122.862 300.554 C 114.032 309.953,83.265 303.362,60.615 287.220 C 40.421 272.828,19.960 241.021,16.754 219.037 C 15.848 212.828,22.077 223.263,25.347 233.432 C 29.140 245.227,38.432 261.847,46.039 270.441 C 50.844 275.870,51.411 274.851,46.806 269.063 C 41.552 262.461,42.277 262.202,49.498 268.101 C 64.386 280.266,71.378 284.554,70.183 280.788 C 69.895 279.880,68.755 278.436,67.651 277.579 C 53.329 266.465,40.075 244.933,38.801 230.710 C 36.782 208.153,35.563 208.578,64.107 221.904 C 92.659 235.234,119.576 228.453,148.201 200.719 C 163.805 185.600,167.722 185.338,169.758 199.272 C 175.574 239.062,141.623 289.353,106.820 292.504 C 98.021 293.300,97.101 293.994,101.485 296.528 C 106.451 299.398,118.248 299.791,121.663 297.199 C 123.819 295.562,128.922 294.082,128.485 295.220 C 126.894 299.367,140.363 289.556,149.769 279.717 C 171.873 256.594,184.164 225.781,184.248 193.282 C 184.255 190.432,184.484 188.100,184.757 188.100 C 185.030 188.100,185.040 193.887,184.778 200.960 M297.739 191.669 C 297.472 195.736,295.575 197.614,290.979 198.362 L 288.292 198.800 291.123 197.295 C 294.579 195.457,296.353 193.062,296.353 190.232 C 296.353 189.059,296.718 188.100,297.163 188.100 C 297.648 188.100,297.879 189.530,297.739 191.669 M303.186 208.551 C 312.184 213.035,323.773 229.346,316.699 227.571 C 313.552 226.781,314.349 227.931,324.447 238.741 C 333.456 248.385,336.938 252.953,335.996 253.895 C 335.780 254.111,334.580 253.129,333.329 251.712 C 310.249 225.575,292.022 216.344,263.467 216.333 C 257.213 216.331,254.999 216.095,255.597 215.497 C 256.934 214.160,256.568 213.436,254.556 213.436 C 250.447 213.436,252.034 210.773,257.483 208.522 C 261.498 206.863,271.446 207.021,278.311 208.853 L 283.685 210.287 275.908 209.866 C 261.223 209.070,264.439 211.422,282.917 214.990 C 289.674 216.294,296.065 217.559,297.121 217.801 C 300.179 218.501,297.902 216.595,292.728 214.123 L 288.292 212.005 293.813 211.952 C 300.329 211.891,301.286 211.091,297.100 209.204 C 295.422 208.447,294.050 207.535,294.050 207.177 C 294.050 205.819,299.284 206.606,303.186 208.551 M326.569 214.090 L 329.456 217.047 326.532 216.576 C 323.914 216.154,323.583 215.845,323.368 213.619 C 323.067 210.511,323.075 210.512,326.569 214.090 M78.429 217.777 C 85.752 219.975,86.260 220.393,83.265 221.758 C 79.520 223.464,76.255 222.868,72.939 219.872 C 67.702 215.141,68.558 214.815,78.429 217.777 M273.929 240.335 C 302.603 244.988,322.481 263.327,328.651 290.821 C 333.564 312.716,334.050 326.850,330.134 333.973 C 328.445 337.046,327.063 339.980,327.063 340.493 C 327.063 346.876,319.132 346.537,305.182 339.558 C 275.849 324.883,257.354 321.018,221.655 322.106 C 204.190 322.638,200.615 323.375,207.545 325.013 C 212.700 326.233,210.681 327.229,203.623 326.948 C 192.471 326.504,186.270 322.033,183.180 312.210 C 181.060 305.470,181.320 305.249,190.676 305.854 L 198.588 306.366 199.908 301.551 C 211.592 258.934,240.618 234.929,273.929 240.335 M343.126 258.074 C 345.962 260.717,348.517 268.855,346.449 268.660 C 344.694 268.494,338.004 256.430,339.668 256.430 C 340.599 256.430,342.155 257.170,343.126 258.074 M257.965 325.888 C 272.396 328.102,284.058 332.059,302.111 340.869 C 321.204 350.187,324.334 350.482,335.112 343.978 C 348.073 336.156,353.197 338.417,343.715 347.773 C 334.465 356.901,328.097 356.767,298.519 346.819 C 271.941 337.880,261.838 335.199,247.217 333.201 C 241.094 332.364,234.611 331.332,232.810 330.907 C 231.010 330.482,228.591 330.129,227.436 330.123 C 226.281 330.116,224.888 329.827,224.340 329.479 C 222.138 328.083,225.536 327.030,238.004 325.244 C 242.651 324.578,251.234 324.855,257.965 325.888 " stroke="none" fill="#cdb380" fill-rule="evenodd"></path><path id="path1" d="M0.000 191.939 L 0.000 383.877 200.000 383.877 L 400.000 383.877 400.000 191.939 L 400.000 0.000 200.000 0.000 L 0.000 0.000 0.000 191.939 M92.233 23.922 C 93.866 24.411,95.202 25.034,95.202 25.306 C 95.202 26.121,88.203 28.274,83.729 28.835 C 73.278 30.146,63.115 35.838,52.783 46.165 C 47.503 51.443,47.285 52.936,50.672 60.653 C 51.939 63.539,52.975 66.226,52.975 66.624 C 52.975 67.022,53.828 68.606,54.871 70.142 L 56.768 72.937 50.404 72.937 C 40.058 72.937,31.266 76.424,23.608 83.565 C 19.079 87.790,18.806 89.409,23.225 85.844 C 43.892 69.170,61.862 75.933,75.627 105.566 C 83.392 122.281,85.332 131.818,87.185 162.364 C 87.828 172.971,88.290 174.280,91.394 174.280 C 96.120 174.280,99.203 170.491,98.577 165.451 C 96.452 148.319,95.969 143.370,95.969 138.696 C 95.969 134.939,95.313 131.005,93.898 126.290 C 90.548 115.121,91.934 89.757,96.435 79.846 C 107.788 54.849,150.219 59.998,155.836 87.054 C 156.847 91.921,157.770 93.011,158.481 90.177 C 158.802 88.899,159.421 88.310,160.291 88.455 C 161.043 88.581,161.525 88.248,161.409 87.683 C 159.513 78.407,159.784 64.920,161.952 60.708 C 164.969 54.848,165.478 57.678,165.257 79.079 C 165.014 102.592,164.753 104.847,161.952 107.648 C 160.540 109.060,159.840 110.507,159.934 111.822 C 160.222 115.882,152.379 117.067,145.639 113.981 C 136.850 109.958,129.985 110.290,120.683 115.191 C 114.402 118.500,113.494 118.584,115.664 115.655 C 117.442 113.254,125.996 108.906,134.790 105.934 C 145.746 102.230,147.501 100.302,145.434 94.237 C 140.725 80.415,125.274 77.482,114.505 88.366 C 104.623 98.354,100.998 122.229,109.576 120.831 C 111.099 120.583,111.233 120.800,110.824 122.849 C 110.238 125.777,110.721 125.735,116.158 122.379 C 121.043 119.363,122.076 119.300,119.947 122.148 C 113.518 130.747,115.516 135.513,125.947 136.459 C 131.519 136.964,143.480 134.750,150.096 131.989 C 158.870 128.327,171.909 127.240,173.693 130.022 C 174.003 130.506,174.262 129.454,174.268 127.684 C 174.275 125.915,174.611 124.262,175.015 124.013 C 175.847 123.499,178.310 127.768,177.595 128.483 C 177.341 128.737,177.481 129.386,177.907 129.924 C 179.864 132.393,179.749 138.696,177.649 144.086 C 173.469 154.817,172.187 156.244,164.723 158.491 C 159.233 160.143,151.340 165.188,144.643 171.325 C 132.303 182.634,132.115 183.122,146.987 165.233 C 161.193 148.146,148.380 152.714,125.912 172.747 C 122.322 175.948,117.570 180.076,115.351 181.921 C 110.641 185.837,110.614 186.582,115.265 184.209 C 118.977 182.315,122.155 179.935,130.214 173.012 C 135.843 168.176,138.968 166.082,138.958 167.151 C 138.943 168.608,128.172 179.696,122.518 184.076 C 119.106 186.719,115.887 189.234,115.365 189.664 C 114.842 190.094,113.806 190.698,113.062 191.007 C 110.478 192.078,102.811 196.733,103.120 197.042 C 103.708 197.630,115.554 192.214,120.921 188.903 C 131.083 182.635,131.777 182.264,130.610 183.721 C 120.615 196.196,97.638 204.644,82.025 201.583 C 74.472 200.102,67.776 197.746,68.990 196.996 C 69.512 196.673,70.527 196.635,71.246 196.911 C 73.307 197.701,83.927 199.630,84.280 199.277 C 84.621 198.936,79.950 196.719,68.330 191.707 C 60.582 188.366,58.774 188.128,49.328 189.215 C 42.085 190.049,42.239 190.395,52.015 195.292 C 87.502 213.065,109.828 209.052,141.746 179.163 C 158.901 163.099,167.663 159.720,179.629 164.553 C 183.615 166.163,184.288 166.266,183.835 165.193 C 183.539 164.490,183.149 163.052,182.969 161.996 L 182.642 160.077 184.028 161.874 C 184.789 162.863,186.413 164.763,187.636 166.097 C 198.658 178.122,199.632 204.160,190.411 240.277 C 180.595 278.722,151.025 314.538,124.760 319.796 C 89.795 326.795,53.479 305.937,29.402 265.026 C 11.427 234.484,4.860 205.569,11.640 186.817 C 14.169 179.822,14.012 172.019,11.228 166.255 C 8.154 159.891,8.154 153.749,11.228 147.661 C 13.755 142.657,14.389 131.207,12.345 127.503 C 10.851 124.796,4.895 102.539,3.498 94.446 C -0.252 72.716,4.892 58.242,19.772 48.654 C 23.466 46.275,27.351 43.745,28.407 43.032 C 51.218 27.630,77.924 19.635,92.233 23.922 M98.037 68.181 C 93.911 72.350,92.695 74.472,94.434 74.472 C 94.856 74.472,95.202 74.213,95.202 73.896 C 95.202 73.580,96.382 72.379,97.824 71.228 L 100.447 69.135 98.011 72.764 C 95.362 76.710,92.012 85.984,90.599 93.282 C 89.019 101.438,86.525 109.840,85.758 109.584 C 85.348 109.447,82.784 105.252,80.060 100.262 C 74.811 90.646,74.609 88.922,78.906 90.420 C 81.140 91.198,81.159 91.179,82.499 86.868 C 85.491 77.236,92.415 67.923,99.199 64.406 C 103.102 62.382,102.799 63.368,98.037 68.181 M285.620 70.268 C 286.836 71.733,287.144 71.529,279.846 74.084 C 256.011 82.427,250.823 90.594,265.032 97.407 C 268.937 99.279,270.956 100.622,270.250 100.878 C 269.616 101.107,267.370 101.860,265.259 102.550 C 250.945 107.230,218.810 131.620,218.810 137.804 C 218.810 139.546,219.254 139.281,222.825 135.403 C 230.506 127.063,253.029 110.151,258.620 108.526 C 270.759 104.997,282.043 109.819,284.930 119.770 C 287.158 127.452,286.341 168.530,283.736 179.822 C 281.173 190.927,281.589 192.706,286.741 192.706 C 291.330 192.706,293.475 188.519,294.410 177.735 C 295.574 164.317,299.378 143.979,302.166 136.276 C 303.250 133.280,300.912 136.336,298.294 141.337 C 295.468 146.735,294.442 147.565,293.830 144.946 C 293.604 143.978,292.568 140.768,291.528 137.812 C 290.488 134.856,289.377 131.228,289.060 129.750 L 288.484 127.063 290.115 128.526 L 291.747 129.988 291.747 127.182 C 291.747 123.613,292.954 123.536,293.615 127.063 C 294.279 130.599,294.859 130.420,296.907 126.044 C 299.203 121.139,303.179 116.638,307.879 113.621 C 312.866 110.421,313.279 110.954,309.425 115.617 C 305.386 120.505,305.255 121.783,309.048 119.297 C 310.089 118.616,310.940 118.275,310.940 118.540 C 310.940 119.206,309.247 122.176,307.938 123.805 C 305.812 126.453,307.843 126.027,311.472 123.065 C 321.875 114.572,331.014 118.054,342.802 135.002 C 344.069 136.823,345.824 139.237,346.703 140.366 C 347.581 141.495,351.337 146.910,355.050 152.399 C 365.136 167.313,366.883 168.649,361.964 157.690 C 360.469 154.358,358.412 149.731,357.392 147.409 C 343.377 115.471,344.481 119.002,348.513 119.002 C 351.416 119.002,359.472 120.591,364.299 122.115 C 365.566 122.515,369.178 123.588,372.326 124.500 C 380.995 127.010,381.574 127.866,381.574 138.166 C 381.574 154.656,378.825 166.119,369.877 186.943 C 363.420 201.969,362.464 207.035,364.271 216.636 C 366.841 230.287,365.346 236.866,357.798 245.124 C 349.536 254.165,348.908 259.935,353.394 285.605 C 360.978 329.007,359.515 343.847,346.287 357.667 C 336.460 367.933,327.564 369.606,304.798 365.466 C 287.147 362.255,242.610 353.383,237.236 352.006 C 234.914 351.411,225.758 349.363,216.891 347.455 C 186.257 340.863,175.048 329.532,175.048 305.161 C 175.048 290.429,188.220 259.140,199.026 248.203 C 203.681 243.493,203.723 243.411,202.314 241.854 C 200.918 240.311,200.927 240.205,202.746 237.029 C 205.736 231.809,205.419 218.834,202.132 211.888 C 197.725 202.577,198.196 196.539,204.092 186.781 C 210.486 176.198,211.258 169.321,208.425 148.177 C 204.998 122.594,209.774 99.124,220.325 89.707 C 234.412 77.133,280.043 63.548,285.620 70.268 M38.004 99.756 C 33.368 102.125,30.949 106.602,29.292 115.883 L 27.896 123.699 29.825 125.216 L 31.754 126.734 30.487 130.696 C 28.903 135.649,29.072 135.795,33.831 133.566 C 38.391 131.430,39.309 130.161,38.145 127.604 C 36.173 123.278,44.968 122.212,55.826 125.462 C 59.232 126.481,63.957 127.558,66.326 127.854 L 70.633 128.392 70.625 125.808 C 70.572 109.431,50.478 93.383,38.004 99.756 M245.683 126.797 C 238.716 129.264,238.261 129.496,238.978 130.213 C 239.780 131.015,254.127 126.116,254.127 125.040 C 254.127 124.012,252.720 124.304,245.683 126.797 M259.885 130.623 C 248.559 133.271,232.987 145.462,230.942 153.280 C 230.361 155.502,234.811 157.177,237.403 155.712 C 241.055 153.647,253.682 154.464,261.390 157.264 C 272.817 161.416,274.853 159.995,275.457 147.452 C 276.171 132.637,271.741 127.850,259.885 130.623 M76.704 131.862 C 76.512 133.413,76.935 140.561,77.919 152.399 C 78.515 159.578,79.230 168.309,79.506 171.802 C 79.921 177.038,80.276 178.295,81.529 178.965 C 83.709 180.132,83.701 180.894,81.716 161.228 C 80.714 151.305,79.838 141.113,79.769 138.580 C 79.627 133.346,77.183 127.989,76.704 131.862 M52.975 134.357 C 50.415 136.917,51.532 140.462,56.423 145.298 C 58.981 147.826,58.743 147.813,62.565 145.648 C 67.468 142.871,66.939 138.590,61.236 134.893 C 57.434 132.427,55.059 132.273,52.975 134.357 M315.891 142.763 C 312.285 145.332,311.530 146.762,309.421 155.023 C 306.603 166.059,307.966 168.906,316.067 168.906 C 324.970 168.906,334.052 171.573,340.683 176.134 C 349.931 182.495,352.196 177.795,345.886 165.337 C 337.218 148.223,323.121 137.614,315.891 142.763 M107.516 144.035 C 108.100 145.570,107.904 147.057,106.672 150.436 C 105.252 154.331,105.156 155.476,105.840 160.411 C 106.818 167.468,106.480 167.293,112.631 163.934 C 124.206 157.612,124.291 155.148,113.244 146.339 C 107.172 141.498,106.440 141.203,107.516 144.035 M99.808 163.800 C 99.808 171.160,100.719 180.422,101.443 180.422 C 102.567 180.422,109.021 173.821,109.021 172.671 C 109.021 172.063,108.157 170.295,107.102 168.741 C 106.046 167.187,105.182 165.633,105.182 165.286 C 105.182 164.212,101.331 158.925,100.548 158.925 C 100.141 158.925,99.808 161.119,99.808 163.800 M248.580 160.847 C 247.429 161.495,246.134 162.687,245.701 163.496 C 244.947 164.905,244.549 176.583,245.255 176.583 C 247.488 176.583,267.313 165.088,266.952 164.003 C 266.042 161.272,252.082 158.874,248.580 160.847 M276.581 169.095 C 273.818 171.945,273.387 173.987,275.432 174.541 C 280.667 175.960,281.054 175.928,280.630 174.108 C 280.407 173.147,279.965 171.047,279.648 169.442 L 279.073 166.523 276.581 169.095 M297.500 173.248 C 296.216 175.954,296.221 176.097,297.659 177.278 C 298.479 177.952,301.131 181.180,303.553 184.453 C 309.339 192.272,311.416 192.765,308.530 185.633 C 307.627 183.401,306.441 179.727,305.895 177.469 C 304.111 170.093,299.982 168.017,297.500 173.248 M313.244 171.663 C 313.244 173.179,320.836 186.428,322.871 188.463 C 326.786 192.378,345.490 195.176,345.490 191.847 C 345.489 188.410,335.704 179.409,327.401 175.208 C 322.832 172.895,313.244 170.495,313.244 171.663 M275.065 182.534 C 273.310 186.581,273.390 190.816,275.257 192.674 C 276.769 194.178,276.776 194.154,276.869 186.919 C 276.975 178.786,276.836 178.449,275.065 182.534 M65.456 188.553 C 66.202 189.298,83.835 193.580,84.290 193.126 C 85.118 192.297,83.618 191.704,76.224 189.938 C 68.928 188.195,64.533 187.629,65.456 188.553 M184.248 193.282 C 184.164 225.781,171.873 256.594,149.769 279.717 C 140.363 289.556,126.894 299.367,128.485 295.220 C 128.922 294.082,123.819 295.562,121.663 297.199 C 118.248 299.791,106.451 299.398,101.485 296.528 C 97.101 293.994,98.021 293.300,106.820 292.504 C 141.623 289.353,175.574 239.062,169.758 199.272 C 167.722 185.338,163.805 185.600,148.201 200.719 C 119.576 228.453,92.659 235.234,64.107 221.904 C 35.563 208.578,36.782 208.153,38.801 230.710 C 40.075 244.933,53.329 266.465,67.651 277.579 C 68.755 278.436,69.895 279.880,70.183 280.788 C 71.378 284.554,64.386 280.266,49.498 268.101 C 42.277 262.202,41.552 262.461,46.806 269.063 C 51.411 274.851,50.844 275.870,46.039 270.441 C 38.432 261.847,29.140 245.227,25.347 233.432 C 22.077 223.263,15.848 212.828,16.754 219.037 C 19.960 241.021,40.421 272.828,60.615 287.220 C 83.265 303.362,114.032 309.953,122.862 300.554 C 124.050 299.288,125.478 298.656,127.147 298.656 C 132.956 298.656,151.375 283.339,160.776 270.689 C 171.821 255.828,179.175 238.965,183.183 219.308 C 184.344 213.615,185.631 188.100,184.757 188.100 C 184.484 188.100,184.255 190.432,184.248 193.282 M296.353 190.232 C 296.353 193.062,294.579 195.457,291.123 197.295 L 288.292 198.800 290.979 198.362 C 295.575 197.614,297.472 195.736,297.739 191.669 C 297.879 189.530,297.648 188.100,297.163 188.100 C 296.718 188.100,296.353 189.059,296.353 190.232 M294.050 207.177 C 294.050 207.535,295.422 208.447,297.100 209.204 C 301.286 211.091,300.329 211.891,293.813 211.952 L 288.292 212.005 292.728 214.123 C 297.902 216.595,300.179 218.501,297.121 217.801 C 296.065 217.559,289.674 216.294,282.917 214.990 C 264.439 211.422,261.223 209.070,275.908 209.866 L 283.685 210.287 278.311 208.853 C 271.446 207.021,261.498 206.863,257.483 208.522 C 252.034 210.773,250.447 213.436,254.556 213.436 C 256.568 213.436,256.934 214.160,255.597 215.497 C 254.999 216.095,257.213 216.331,263.467 216.333 C 292.022 216.344,310.249 225.575,333.329 251.712 C 334.580 253.129,335.780 254.111,335.996 253.895 C 336.938 252.953,333.456 248.385,324.447 238.741 C 314.349 227.931,313.552 226.781,316.699 227.571 C 323.773 229.346,312.184 213.035,303.186 208.551 C 299.284 206.606,294.050 205.819,294.050 207.177 M323.368 213.619 C 323.583 215.845,323.914 216.154,326.532 216.576 L 329.456 217.047 326.569 214.090 C 323.075 210.512,323.067 210.511,323.368 213.619 M69.866 216.417 C 69.866 220.187,78.852 223.769,83.265 221.758 C 86.260 220.393,85.752 219.975,78.429 217.777 C 71.079 215.571,69.866 215.378,69.866 216.417 M251.440 240.605 C 229.191 246.025,208.384 270.634,199.908 301.551 L 198.588 306.366 190.676 305.854 C 181.320 305.249,181.060 305.470,183.180 312.210 C 186.270 322.033,192.471 326.504,203.623 326.948 C 210.681 327.229,212.700 326.233,207.545 325.013 C 200.615 323.375,204.190 322.638,221.655 322.106 C 257.354 321.018,275.849 324.883,305.182 339.558 C 319.132 346.537,327.063 346.876,327.063 340.493 C 327.063 339.980,328.445 337.046,330.134 333.973 C 333.894 327.134,333.985 325.073,331.332 307.102 C 327.753 282.866,323.411 271.617,313.119 259.925 C 300.264 245.321,270.434 235.978,251.440 240.605 M341.924 262.518 C 346.182 269.081,347.025 269.784,347.025 266.770 C 347.025 262.147,342.957 256.430,339.668 256.430 C 338.111 256.430,338.294 256.922,341.924 262.518 M238.004 325.244 C 225.536 327.030,222.138 328.083,224.340 329.479 C 224.888 329.827,226.281 330.116,227.436 330.123 C 228.591 330.129,231.010 330.482,232.810 330.907 C 234.611 331.332,241.094 332.364,247.217 333.201 C 261.838 335.199,271.941 337.880,298.519 346.819 C 328.097 356.767,334.465 356.901,343.715 347.773 C 353.197 338.417,348.073 336.156,335.112 343.978 C 324.334 350.482,321.204 350.187,302.111 340.869 C 276.458 328.351,254.198 322.925,238.004 325.244 " stroke="none" fill="transparent" fill-rule="evenodd"></path></g></svg>