<svg id="svg" version="1.1" width="643" height="643" xmlns="http://www.w3.org/2000/svg" xmlns:xlink="http://www.w3.org/1999/xlink" style="display: block;"><g id="svgg"><path id="path0" d="M186.625 40.273 C 185.770 40.833,184.370 41.914,183.515 42.676 C 182.659 43.438,181.260 44.156,180.404 44.271 C 179.043 44.453,178.858 44.771,178.920 46.812 C 178.980 48.779,178.785 49.153,177.676 49.196 C 176.953 49.225,175.731 49.318,174.961 49.404 C 173.466 49.569,173.104 48.343,174.157 46.677 C 174.522 46.100,174.493 45.474,174.078 44.974 C 173.717 44.540,173.575 43.786,173.761 43.300 C 174.211 42.128,171.644 41.493,169.599 42.271 C 167.866 42.930,166.719 44.660,166.719 46.615 C 166.719 48.314,166.007 48.237,164.230 46.345 C 162.569 44.577,161.012 44.365,159.653 45.723 C 159.140 46.236,158.016 46.656,157.154 46.656 C 147.069 46.656,99.344 82.740,101.000 89.114 C 101.184 89.822,100.923 90.209,100.253 90.221 C 99.012 90.245,95.608 94.623,94.190 98.017 C 93.627 99.364,92.402 101.338,91.468 102.402 C 82.630 112.472,65.387 159.695,69.167 163.475 C 69.737 164.045,69.604 164.535,68.583 165.622 C 65.130 169.297,63.036 212.753,66.312 212.753 C 67.353 212.753,67.401 213.348,66.542 215.608 C 64.132 221.946,76.000 265.499,82.700 274.909 C 83.405 275.899,83.981 277.168,83.981 277.730 C 83.981 280.694,97.175 300.463,106.532 311.520 C 113.579 319.847,131.925 335.303,134.762 335.303 C 135.016 335.303,135.801 335.836,136.507 336.487 C 144.580 343.929,170.894 352.651,189.425 354.026 C 290.205 361.508,360.783 236.832,317.167 128.369 L 313.370 118.928 310.416 122.305 C 308.791 124.162,307.287 126.552,307.074 127.615 C 306.399 130.990,306.655 136.008,307.621 138.318 C 308.757 141.038,308.805 144.106,307.743 146.190 C 307.107 147.437,307.104 148.175,307.725 149.922 C 309.672 155.398,307.924 168.439,305.353 167.623 C 304.357 167.307,304.266 167.519,304.624 169.308 L 305.033 171.355 303.394 170.281 C 300.444 168.348,294.868 170.490,294.868 173.556 C 294.868 175.681,293.738 175.483,292.994 173.228 C 292.423 171.497,292.085 171.165,291.441 171.700 C 290.815 172.219,290.553 172.114,290.350 171.262 C 290.070 170.081,289.981 170.209,288.984 173.233 C 288.649 174.251,288.484 174.305,288.018 173.550 C 287.528 172.757,287.231 172.769,285.718 173.638 C 284.763 174.187,283.212 174.820,282.271 175.044 C 281.024 175.341,280.560 175.836,280.560 176.868 C 280.560 177.694,279.555 179.267,278.153 180.636 C 276.173 182.569,275.679 183.549,275.371 186.148 C 275.141 188.094,274.332 190.289,273.268 191.856 L 271.540 194.401 271.343 192.691 C 271.087 190.463,271.355 190.320,266.380 195.334 C 264.004 197.729,261.743 199.689,261.357 199.689 C 260.042 199.689,260.594 202.583,262.031 203.224 L 263.410 203.839 261.824 204.878 C 259.489 206.408,256.136 205.219,256.679 203.054 C 257.111 201.335,253.635 195.334,252.208 195.334 C 251.741 195.334,250.160 196.136,248.696 197.117 C 247.232 198.097,245.267 199.362,244.329 199.927 C 243.090 200.674,242.515 201.637,242.224 203.455 C 241.492 208.035,236.263 209.263,230.511 206.204 L 227.555 204.633 223.787 206.515 C 221.715 207.551,219.644 208.398,219.185 208.398 C 218.727 208.398,218.351 208.818,218.351 209.331 C 218.351 211.407,212.523 209.267,207.933 205.506 C 206.441 204.283,205.133 203.384,205.026 203.507 C 204.920 203.631,204.354 205.199,203.769 206.991 C 202.351 211.330,201.804 211.483,201.629 207.589 C 201.384 202.133,199.097 201.843,197.834 207.108 C 196.771 211.539,195.956 211.617,195.956 207.287 C 195.956 204.519,195.676 203.361,194.819 202.585 C 193.014 200.952,192.846 201.273,192.846 206.345 C 192.846 211.855,192.044 211.831,191.035 206.291 C 190.292 202.209,189.520 200.933,187.793 200.933 C 186.365 200.933,186.349 200.689,187.644 198.713 C 188.420 197.528,188.510 196.830,188.021 195.780 C 187.444 194.542,187.334 194.513,186.936 195.489 C 186.127 197.475,183.910 193.865,184.334 191.253 C 184.737 188.767,184.822 188.807,181.997 190.154 L 179.815 191.195 176.105 187.968 L 172.395 184.741 167.737 186.305 C 159.437 189.091,155.265 186.927,157.615 181.054 C 159.015 177.554,158.931 175.010,157.387 174.184 C 155.992 173.437,155.786 171.659,156.862 169.649 C 157.257 168.910,157.636 166.470,157.705 164.227 C 157.773 161.983,158.208 159.540,158.672 158.797 C 159.292 157.805,159.352 156.987,158.898 155.707 C 158.246 153.865,159.999 149.673,162.412 147.308 C 163.006 146.726,163.800 144.815,164.176 143.061 C 165.118 138.671,165.818 137.524,167.319 137.917 C 168.449 138.212,168.477 138.357,167.638 139.554 C 165.669 142.367,167.137 145.568,170.397 145.568 C 173.273 145.568,180.020 138.115,179.459 135.558 C 179.098 133.916,179.316 133.388,180.937 131.979 C 182.796 130.363,182.831 130.233,182.468 126.109 C 182.110 122.041,182.057 121.929,180.936 122.943 C 178.974 124.719,178.478 122.367,179.852 117.794 C 180.537 115.515,180.474 114.818,179.315 111.789 C 177.893 108.071,178.139 106.671,179.777 109.168 L 180.799 110.725 181.836 108.551 C 183.006 106.097,183.867 105.791,184.448 107.621 C 184.924 109.120,185.575 109.197,186.667 107.881 C 187.292 107.128,187.317 106.631,186.773 105.760 C 184.850 102.680,187.456 98.542,191.151 98.809 C 192.209 98.885,193.017 98.568,193.239 97.989 C 194.083 95.789,198.863 98.250,201.327 102.154 C 202.710 104.343,203.075 104.570,204.554 104.152 C 205.471 103.893,206.851 103.698,207.621 103.719 C 208.758 103.749,209.020 103.420,209.020 101.956 C 209.020 100.240,209.150 100.156,211.783 100.156 C 215.854 100.156,215.758 99.449,210.886 93.537 C 207.854 89.858,206.658 87.961,207.096 87.523 C 208.205 86.414,212.320 88.755,213.697 91.278 C 215.132 93.910,216.317 94.511,216.889 92.898 C 217.111 92.271,217.860 91.128,218.553 90.358 L 219.813 88.958 218.460 88.958 C 217.496 88.958,217.107 89.337,217.107 90.278 C 217.107 91.405,216.965 91.480,216.136 90.792 C 215.065 89.904,215.063 85.843,216.134 85.104 C 216.478 84.866,216.628 84.572,216.467 84.450 C 213.646 82.327,212.214 80.871,212.947 80.871 C 216.825 80.871,216.947 76.613,213.097 75.647 C 212.286 75.444,211.330 74.476,210.890 73.414 C 210.307 72.007,209.705 71.537,208.478 71.529 C 206.233 71.515,202.104 69.042,201.483 67.341 C 201.004 66.025,201.136 65.941,203.692 65.941 C 206.168 65.941,206.470 65.770,207.077 64.028 C 207.780 62.010,209.020 62.064,209.020 64.111 C 209.020 64.775,209.268 65.319,209.571 65.319 C 210.527 65.319,212.216 62.192,212.014 60.795 C 211.901 60.017,212.433 58.845,213.284 57.996 C 214.565 56.720,214.696 56.169,214.325 53.618 C 213.887 50.605,212.249 48.112,211.693 49.611 C 211.215 50.902,210.264 50.485,210.274 48.989 C 210.291 46.518,211.307 45.521,212.352 46.950 C 213.280 48.219,213.998 47.198,215.492 42.491 C 216.247 40.111,208.421 37.858,207.523 40.197 C 207.157 41.151,207.045 41.152,206.003 40.209 C 204.365 38.726,188.913 38.777,186.625 40.273 M224.362 43.742 C 224.562 44.832,225.153 46.064,225.675 46.481 C 226.408 47.067,226.459 47.437,225.901 48.110 C 224.603 49.674,226.705 50.741,229.577 49.974 C 232.180 49.279,232.187 49.322,229.963 52.378 C 228.793 53.985,228.787 54.126,229.823 55.707 L 230.904 57.358 232.665 55.671 L 234.425 53.985 236.968 55.414 L 239.511 56.844 237.996 58.437 C 236.591 59.916,235.178 63.453,235.994 63.453 C 236.191 63.453,236.750 62.694,237.235 61.767 L 238.118 60.082 239.442 62.234 C 240.170 63.417,241.090 65.505,241.487 66.874 C 242.538 70.499,243.173 71.166,244.462 70.000 C 245.038 69.478,246.209 69.051,247.063 69.051 C 249.170 69.051,251.385 66.628,250.916 64.836 C 250.656 63.840,250.828 63.453,251.531 63.453 C 252.831 63.453,253.802 67.103,253.807 72.006 C 253.811 76.569,254.044 76.671,257.164 73.475 C 259.214 71.376,259.434 70.882,258.824 69.742 C 258.238 68.647,258.295 68.429,259.173 68.429 C 260.139 68.429,260.133 68.329,259.110 67.198 C 257.796 65.746,257.887 65.692,263.625 64.545 C 265.773 64.115,267.571 63.484,267.622 63.142 C 267.841 61.650,243.431 47.278,240.678 47.278 C 240.431 47.278,239.807 48.468,239.292 49.922 L 238.356 52.566 238.307 49.320 L 238.258 46.074 232.815 44.459 C 229.821 43.571,226.613 42.600,225.685 42.303 C 224.050 41.778,224.009 41.822,224.362 43.742 M212.545 64.489 C 211.932 65.103,212.042 67.807,212.680 67.807 C 213.166 67.807,213.965 65.812,213.988 64.541 C 213.999 63.963,213.104 63.931,212.545 64.489 M186.047 68.793 C 186.559 69.411,187.518 69.684,188.612 69.523 C 190.293 69.276,190.358 69.365,190.358 71.930 L 190.358 74.594 188.776 73.012 C 187.356 71.591,186.880 71.473,184.110 71.854 C 180.581 72.340,180.365 71.987,182.698 69.552 C 184.635 67.530,184.941 67.461,186.047 68.793 M179.649 72.040 C 180.487 73.302,180.456 73.406,179.236 73.406 C 178.510 73.406,177.916 73.149,177.916 72.835 C 177.916 72.521,177.731 71.782,177.506 71.195 C 176.927 69.687,178.498 70.307,179.649 72.040 M157.263 95.303 C 158.591 96.631,158.100 97.667,156.143 97.667 C 154.567 97.667,154.277 97.425,154.277 96.112 C 154.277 94.410,155.923 93.964,157.263 95.303 M197.045 106.187 C 194.852 107.693,193.851 110.109,195.421 110.109 C 195.811 110.109,196.468 110.570,196.880 111.134 C 197.873 112.492,201.235 111.792,200.679 110.343 C 200.476 109.816,200.311 108.288,200.311 106.948 C 200.311 104.104,200.137 104.063,197.045 106.187 M189.891 113.239 C 188.854 113.655,188.491 114.310,188.491 115.764 C 188.491 117.443,188.627 117.614,189.430 116.947 C 190.000 116.474,191.220 116.307,192.540 116.521 C 195.058 116.930,195.587 115.448,193.575 113.627 C 192.302 112.475,191.897 112.433,189.891 113.239 M124.591 118.219 C 124.415 118.891,124.016 119.440,123.703 119.440 C 122.884 119.440,122.352 117.745,122.802 116.571 C 123.362 115.112,125.007 116.628,124.591 118.219 M151.646 120.568 C 151.781 120.974,151.449 121.306,150.907 121.306 C 150.365 121.306,149.922 120.863,149.922 120.321 C 149.922 119.223,151.261 119.414,151.646 120.568 M298.600 121.559 C 298.600 122.128,299.036 122.320,299.844 122.109 C 300.529 121.930,301.089 121.536,301.089 121.234 C 301.089 120.932,300.529 120.684,299.844 120.684 C 299.160 120.684,298.600 121.078,298.600 121.559 M126.417 130.939 C 127.025 133.963,128.103 137.421,128.813 138.623 C 129.843 140.370,130.021 141.398,129.699 143.738 C 129.386 146.015,129.599 147.371,130.657 149.830 C 132.603 154.354,133.103 154.597,135.980 152.420 C 139.291 149.915,142.040 150.325,140.554 153.102 C 140.090 153.970,140.237 154.377,141.205 154.895 C 142.778 155.737,142.780 156.470,141.213 158.462 C 139.587 160.529,139.621 163.469,141.293 165.249 L 142.618 166.659 140.982 168.603 C 140.036 169.727,139.347 171.310,139.347 172.357 L 139.347 174.167 136.579 172.823 L 133.812 171.478 132.637 172.930 C 131.126 174.795,130.016 174.104,130.016 171.300 C 130.016 167.644,125.450 164.068,123.401 166.117 C 121.291 168.227,120.986 156.790,122.946 149.057 C 123.522 146.782,123.713 144.439,123.450 142.879 C 122.767 138.839,122.662 127.318,123.297 126.090 C 124.383 123.988,125.308 125.426,126.417 130.939 M147.397 135.719 L 148.654 137.067 147.266 137.803 C 145.461 138.760,144.005 137.598,144.613 135.684 C 145.141 134.017,145.820 134.026,147.397 135.719 M90.824 138.040 C 90.824 138.307,90.082 138.863,89.174 139.277 C 86.788 140.364,85.813 139.109,88.109 137.905 C 89.837 137.000,90.824 137.049,90.824 138.040 M81.493 138.031 C 81.493 138.334,80.793 139.040,79.938 139.601 C 78.397 140.610,77.469 139.223,78.797 137.895 C 79.407 137.285,81.493 137.390,81.493 138.031 M102.017 140.575 C 102.717 141.017,102.769 141.337,102.228 141.878 C 101.688 142.418,102.036 143.054,103.647 144.468 C 105.636 146.214,105.707 146.401,104.680 147.188 C 103.717 147.925,103.695 148.112,104.510 148.657 C 105.766 149.497,106.092 149.459,106.998 148.367 C 108.756 146.250,110.535 148.469,109.685 151.719 C 109.359 152.967,109.020 153.120,107.223 152.828 C 104.992 152.466,98.096 154.430,96.374 155.917 C 94.980 157.121,94.620 156.973,95.034 155.365 C 95.355 154.119,95.281 154.059,94.354 154.820 C 93.403 155.600,93.313 155.371,93.313 152.176 C 93.313 149.481,93.098 148.678,92.379 148.678 C 91.026 148.678,91.213 147.997,93.366 145.068 C 94.439 143.610,95.802 142.457,96.455 142.457 C 97.098 142.457,97.923 141.897,98.289 141.213 C 99.002 139.881,100.511 139.623,102.017 140.575 M83.288 141.156 C 83.973 141.590,83.866 141.853,82.768 142.441 C 81.190 143.285,80.550 142.947,81.086 141.551 C 81.503 140.464,82.043 140.367,83.288 141.156 M77.138 157.010 C 77.138 157.914,75.636 158.788,75.065 158.217 C 74.884 158.036,74.886 157.495,75.071 157.015 C 75.504 155.885,77.138 155.881,77.138 157.010 M103.162 165.289 C 102.578 165.992,102.253 165.842,101.339 164.449 C 99.859 162.192,100.530 161.293,102.391 163.040 C 103.544 164.124,103.715 164.622,103.162 165.289 M95.169 166.563 C 95.157 167.974,94.123 169.603,93.583 169.062 C 92.998 168.478,93.823 165.474,94.569 165.474 C 94.904 165.474,95.175 165.964,95.169 166.563 M117.829 168.274 C 118.283 170.082,119.194 170.244,120.791 168.799 C 122.555 167.203,122.277 171.862,120.395 175.428 C 118.930 178.203,118.912 178.214,118.285 176.672 C 117.723 175.290,117.648 175.447,117.613 178.072 C 117.592 179.697,117.822 181.026,118.125 181.026 C 118.745 181.026,116.453 190.964,115.621 191.882 C 114.808 192.779,114.977 191.069,116.048 187.558 C 116.995 184.452,116.994 184.446,115.359 183.133 L 113.722 181.818 114.840 179.711 C 115.721 178.052,115.921 176.449,115.784 172.162 C 115.606 166.633,116.833 164.303,117.829 168.274 M133.848 168.303 C 132.827 170.545,132.988 171.615,134.124 170.140 C 135.945 167.778,136.348 166.719,135.425 166.719 C 134.955 166.719,134.245 167.432,133.848 168.303 M145.568 169.238 C 145.568 172.934,142.699 175.445,141.141 173.113 C 140.185 171.682,140.216 171.523,141.763 169.859 C 143.743 167.731,145.568 167.433,145.568 169.238 M107.596 173.019 C 108.857 173.952,109.861 174.224,110.992 173.941 C 112.446 173.576,112.597 173.711,112.597 175.375 C 112.597 178.277,111.544 180.404,110.108 180.404 C 108.896 180.404,108.880 180.313,109.782 178.569 C 111.056 176.105,110.997 175.955,109.100 176.820 C 107.619 177.495,107.333 177.393,105.993 175.718 C 103.267 172.311,104.295 170.579,107.596 173.019 M100.965 172.712 C 101.181 172.928,100.812 173.801,100.144 174.651 C 99.475 175.501,99.107 176.485,99.326 176.839 C 99.573 177.239,100.005 177.097,100.468 176.465 C 101.364 175.238,102.022 175.746,102.022 177.667 C 102.022 179.585,99.749 180.300,98.574 178.750 C 96.389 175.866,98.581 170.328,100.965 172.712 M133.389 177.414 C 134.277 178.683,134.243 178.847,132.897 179.747 C 132.100 180.280,131.569 181.065,131.717 181.493 C 131.899 182.020,131.268 182.271,129.756 182.271 C 127.857 182.271,127.529 182.064,127.537 180.871 C 127.552 178.576,128.494 177.538,129.298 178.930 C 129.910 179.989,130.040 179.912,130.751 178.072 C 131.672 175.689,132.105 175.581,133.389 177.414 M143.001 198.661 C 143.530 199.299,143.421 199.750,142.544 200.543 C 141.195 201.764,139.524 200.501,140.191 198.764 C 140.639 197.597,142.074 197.544,143.001 198.661 M188.914 198.944 C 187.919 200.043,187.957 200.083,189.764 199.818 C 190.804 199.665,191.556 199.241,191.434 198.876 C 191.050 197.723,189.993 197.751,188.914 198.944 M90.202 200.037 C 90.202 200.530,89.653 200.933,88.982 200.933 C 88.311 200.933,87.188 201.550,86.486 202.303 C 85.254 203.626,85.173 203.634,84.129 202.539 C 83.533 201.914,83.327 201.292,83.670 201.152 C 84.012 201.013,85.412 200.386,86.781 199.759 C 89.436 198.542,90.202 198.604,90.202 200.037 M325.972 208.709 C 325.972 209.327,325.354 209.642,324.142 209.642 C 322.199 209.642,321.083 208.717,322.391 208.189 C 324.061 207.516,325.972 207.794,325.972 208.709 M311.664 211.623 C 311.664 213.212,309.472 211.647,309.317 209.948 L 309.147 208.087 310.406 209.556 C 311.098 210.363,311.664 211.294,311.664 211.623 M88.316 215.894 C 88.339 217.764,87.290 219.011,86.083 218.547 C 85.029 218.143,84.960 215.028,85.968 213.413 C 86.911 211.903,88.284 213.355,88.316 215.894 M185.038 216.006 C 186.816 218.544,186.308 222.869,184.035 224.549 L 182.067 226.005 179.680 223.446 C 176.635 220.181,176.580 218.319,179.445 215.454 C 181.806 213.093,183.086 213.219,185.038 216.006 M223.328 221.802 L 223.328 223.982 221.524 223.049 C 219.936 222.228,219.630 222.226,218.960 223.033 C 217.179 225.180,216.190 221.048,217.849 218.391 C 219.159 216.293,223.328 218.887,223.328 221.802 M137.199 220.677 C 136.844 221.602,136.732 221.602,135.800 220.670 C 134.946 219.816,134.918 219.501,135.621 218.654 C 136.650 217.414,137.857 218.961,137.199 220.677 M256.803 224.991 C 256.585 227.571,255.455 228.349,254.504 226.573 C 254.037 225.700,254.118 225.032,254.808 224.046 C 256.212 222.042,257.020 222.424,256.803 224.991 M259.409 250.114 C 259.409 251.412,258.494 251.735,257.835 250.670 C 257.271 249.757,258.023 248.050,258.783 248.520 C 259.127 248.733,259.409 249.450,259.409 250.114 M203.660 253.655 C 203.872 254.253,204.207 255.093,204.407 255.521 C 204.870 256.514,202.691 256.563,201.709 255.581 C 201.215 255.088,201.183 254.505,201.606 253.715 C 202.379 252.271,203.164 252.248,203.660 253.655 M159.253 266.082 C 159.253 266.725,158.967 266.764,158.009 266.252 C 156.751 265.578,156.392 264.345,157.215 263.521 C 157.747 262.989,159.253 264.881,159.253 266.082 M202.793 267.178 C 203.417 267.929,203.365 268.179,202.517 268.504 C 201.291 268.975,199.984 267.906,200.589 266.928 C 201.163 265.999,201.883 266.081,202.793 267.178 M295.490 282.115 C 294.662 283.113,293.002 283.389,293.002 282.530 C 293.002 281.679,293.756 281.182,295.048 281.182 C 296.059 281.182,296.133 281.340,295.490 282.115 M227.929 283.415 C 228.138 283.959,228.143 284.673,227.940 285.001 C 227.385 285.899,225.828 284.363,226.231 283.314 C 226.681 282.140,227.458 282.187,227.929 283.415 M257.887 297.410 C 258.528 298.448,257.087 299.637,256.228 298.779 C 255.511 298.061,255.960 296.734,256.921 296.734 C 257.222 296.734,257.657 297.038,257.887 297.410 M225.148 304.455 C 225.700 305.120,225.702 305.441,225.155 305.779 C 224.486 306.192,223.360 305.117,223.338 304.044 C 223.322 303.277,224.368 303.514,225.148 304.455 M235.644 310.329 C 236.291 310.739,236.265 310.995,235.515 311.617 C 234.381 312.559,233.201 311.974,233.686 310.711 C 234.084 309.675,234.489 309.596,235.644 310.329 " stroke="none" fill="#cdb380" fill-rule="evenodd"></path><path id="path1" d="M0.000 200.000 L 0.000 400.000 200.000 400.000 L 400.000 400.000 400.000 200.000 L 400.000 0.000 200.000 0.000 L 0.000 0.000 0.000 200.000 M206.003 40.209 C 207.045 41.152,207.157 41.151,207.523 40.197 C 208.421 37.858,216.247 40.111,215.492 42.491 C 213.998 47.198,213.280 48.219,212.352 46.950 C 211.307 45.521,210.291 46.518,210.274 48.989 C 210.264 50.485,211.215 50.902,211.693 49.611 C 212.249 48.112,213.887 50.605,214.325 53.618 C 214.696 56.169,214.565 56.720,213.284 57.996 C 212.433 58.845,211.901 60.017,212.014 60.795 C 212.216 62.192,210.527 65.319,209.571 65.319 C 209.268 65.319,209.020 64.775,209.020 64.111 C 209.020 62.064,207.780 62.010,207.077 64.028 C 206.470 65.770,206.168 65.941,203.692 65.941 C 201.136 65.941,201.004 66.025,201.483 67.341 C 202.104 69.042,206.233 71.515,208.478 71.529 C 209.705 71.537,210.307 72.007,210.890 73.414 C 211.330 74.476,212.286 75.444,213.097 75.647 C 216.947 76.613,216.825 80.871,212.947 80.871 C 212.214 80.871,213.646 82.327,216.467 84.450 C 216.628 84.572,216.478 84.866,216.134 85.104 C 215.063 85.843,215.065 89.904,216.136 90.792 C 216.965 91.480,217.107 91.405,217.107 90.278 C 217.107 89.337,217.496 88.958,218.460 88.958 L 219.813 88.958 218.553 90.358 C 217.860 91.128,217.111 92.271,216.889 92.898 C 216.317 94.511,215.132 93.910,213.697 91.278 C 212.320 88.755,208.205 86.414,207.096 87.523 C 206.658 87.961,207.854 89.858,210.886 93.537 C 215.758 99.449,215.854 100.156,211.783 100.156 C 209.150 100.156,209.020 100.240,209.020 101.956 C 209.020 103.420,208.758 103.749,207.621 103.719 C 206.851 103.698,205.471 103.893,204.554 104.152 C 203.075 104.570,202.710 104.343,201.327 102.154 C 198.863 98.250,194.083 95.789,193.239 97.989 C 193.017 98.568,192.209 98.885,191.151 98.809 C 187.456 98.542,184.850 102.680,186.773 105.760 C 187.317 106.631,187.292 107.128,186.667 107.881 C 185.575 109.197,184.924 109.120,184.448 107.621 C 183.867 105.791,183.006 106.097,181.836 108.551 L 180.799 110.725 179.777 109.168 C 178.139 106.671,177.893 108.071,179.315 111.789 C 180.474 114.818,180.537 115.515,179.852 117.794 C 178.478 122.367,178.974 124.719,180.936 122.943 C 182.057 121.929,182.110 122.041,182.468 126.109 C 182.831 130.233,182.796 130.363,180.937 131.979 C 179.316 133.388,179.098 133.916,179.459 135.558 C 180.020 138.115,173.273 145.568,170.397 145.568 C 167.137 145.568,165.669 142.367,167.638 139.554 C 168.477 138.357,168.449 138.212,167.319 137.917 C 165.818 137.524,165.118 138.671,164.176 143.061 C 163.800 144.815,163.006 146.726,162.412 147.308 C 159.999 149.673,158.246 153.865,158.898 155.707 C 159.352 156.987,159.292 157.805,158.672 158.797 C 158.208 159.540,157.773 161.983,157.705 164.227 C 157.636 166.470,157.257 168.910,156.862 169.649 C 155.786 171.659,155.992 173.437,157.387 174.184 C 158.931 175.010,159.015 177.554,157.615 181.054 C 155.265 186.927,159.437 189.091,167.737 186.305 L 172.395 184.741 176.105 187.968 L 179.815 191.195 181.997 190.154 C 184.822 188.807,184.737 188.767,184.334 191.253 C 183.910 193.865,186.127 197.475,186.936 195.489 C 187.334 194.513,187.444 194.542,188.021 195.780 C 188.510 196.830,188.420 197.528,187.644 198.713 C 186.349 200.689,186.365 200.933,187.793 200.933 C 189.520 200.933,190.292 202.209,191.035 206.291 C 192.044 211.831,192.846 211.855,192.846 206.345 C 192.846 201.273,193.014 200.952,194.819 202.585 C 195.676 203.361,195.956 204.519,195.956 207.287 C 195.956 211.617,196.771 211.539,197.834 207.108 C 199.097 201.843,201.384 202.133,201.629 207.589 C 201.804 211.483,202.351 211.330,203.769 206.991 C 204.354 205.199,204.920 203.631,205.026 203.507 C 205.133 203.384,206.441 204.283,207.933 205.506 C 212.523 209.267,218.351 211.407,218.351 209.331 C 218.351 208.818,218.727 208.398,219.185 208.398 C 219.644 208.398,221.715 207.551,223.787 206.515 L 227.555 204.633 230.511 206.204 C 236.263 209.263,241.492 208.035,242.224 203.455 C 242.515 201.637,243.090 200.674,244.329 199.927 C 245.267 199.362,247.232 198.097,248.696 197.117 C 250.160 196.136,251.741 195.334,252.208 195.334 C 253.635 195.334,257.111 201.335,256.679 203.054 C 256.136 205.219,259.489 206.408,261.824 204.878 L 263.410 203.839 262.031 203.224 C 260.594 202.583,260.042 199.689,261.357 199.689 C 261.743 199.689,264.004 197.729,266.380 195.334 C 271.355 190.320,271.087 190.463,271.343 192.691 L 271.540 194.401 273.268 191.856 C 274.332 190.289,275.141 188.094,275.371 186.148 C 275.679 183.549,276.173 182.569,278.153 180.636 C 279.555 179.267,280.560 177.694,280.560 176.868 C 280.560 175.836,281.024 175.341,282.271 175.044 C 283.212 174.820,284.763 174.187,285.718 173.638 C 287.231 172.769,287.528 172.757,288.018 173.550 C 288.484 174.305,288.649 174.251,288.984 173.233 C 289.981 170.209,290.070 170.081,290.350 171.262 C 290.553 172.114,290.815 172.219,291.441 171.700 C 292.085 171.165,292.423 171.497,292.994 173.228 C 293.738 175.483,294.868 175.681,294.868 173.556 C 294.868 170.490,300.444 168.348,303.394 170.281 L 305.033 171.355 304.624 169.308 C 304.266 167.519,304.357 167.307,305.353 167.623 C 307.924 168.439,309.672 155.398,307.725 149.922 C 307.104 148.175,307.107 147.437,307.743 146.190 C 308.805 144.106,308.757 141.038,307.621 138.318 C 306.655 136.008,306.399 130.990,307.074 127.615 C 307.287 126.552,308.791 124.162,310.416 122.305 L 313.370 118.928 317.167 128.369 C 360.783 236.832,290.205 361.508,189.425 354.026 C 170.894 352.651,144.580 343.929,136.507 336.487 C 135.801 335.836,135.016 335.303,134.762 335.303 C 131.925 335.303,113.579 319.847,106.532 311.520 C 97.175 300.463,83.981 280.694,83.981 277.730 C 83.981 277.168,83.405 275.899,82.700 274.909 C 76.000 265.499,64.132 221.946,66.542 215.608 C 67.401 213.348,67.353 212.753,66.312 212.753 C 63.036 212.753,65.130 169.297,68.583 165.622 C 69.604 164.535,69.737 164.045,69.167 163.475 C 65.387 159.695,82.630 112.472,91.468 102.402 C 92.402 101.338,93.627 99.364,94.190 98.017 C 95.608 94.623,99.012 90.245,100.253 90.221 C 100.923 90.209,101.184 89.822,101.000 89.114 C 99.344 82.740,147.069 46.656,157.154 46.656 C 158.016 46.656,159.140 46.236,159.653 45.723 C 161.012 44.365,162.569 44.577,164.230 46.345 C 166.007 48.237,166.719 48.314,166.719 46.615 C 166.719 44.660,167.866 42.930,169.599 42.271 C 171.644 41.493,174.211 42.128,173.761 43.300 C 173.575 43.786,173.717 44.540,174.078 44.974 C 174.493 45.474,174.522 46.100,174.157 46.677 C 173.104 48.343,173.466 49.569,174.961 49.404 C 175.731 49.318,176.953 49.225,177.676 49.196 C 178.785 49.153,178.980 48.779,178.920 46.812 C 178.858 44.771,179.043 44.453,180.404 44.271 C 181.260 44.156,182.659 43.438,183.515 42.676 C 187.189 39.402,187.730 39.258,196.530 39.224 C 203.418 39.197,205.075 39.369,206.003 40.209 M232.815 44.459 L 238.258 46.074 238.307 49.320 L 238.356 52.566 239.292 49.922 C 239.807 48.468,240.431 47.278,240.678 47.278 C 243.431 47.278,267.841 61.650,267.622 63.142 C 267.571 63.484,265.773 64.115,263.625 64.545 C 257.887 65.692,257.796 65.746,259.110 67.198 C 260.133 68.329,260.139 68.429,259.173 68.429 C 258.295 68.429,258.238 68.647,258.824 69.742 C 259.434 70.882,259.214 71.376,257.164 73.475 C 254.044 76.671,253.811 76.569,253.807 72.006 C 253.802 67.103,252.831 63.453,251.531 63.453 C 250.828 63.453,250.656 63.840,250.916 64.836 C 251.385 66.628,249.170 69.051,247.063 69.051 C 246.209 69.051,245.038 69.478,244.462 70.000 C 243.173 71.166,242.538 70.499,241.487 66.874 C 241.090 65.505,240.170 63.417,239.442 62.234 L 238.118 60.082 237.235 61.767 C 236.750 62.694,236.191 63.453,235.994 63.453 C 235.178 63.453,236.591 59.916,237.996 58.437 L 239.511 56.844 236.968 55.414 L 234.425 53.985 232.665 55.671 L 230.904 57.358 229.823 55.707 C 228.787 54.126,228.793 53.985,229.963 52.378 C 232.187 49.322,232.180 49.279,229.577 49.974 C 226.705 50.741,224.603 49.674,225.901 48.110 C 226.459 47.437,226.408 47.067,225.675 46.481 C 223.737 44.932,223.744 41.680,225.685 42.303 C 226.613 42.600,229.821 43.571,232.815 44.459 M213.988 64.541 C 213.965 65.812,213.166 67.807,212.680 67.807 C 212.042 67.807,211.932 65.103,212.545 64.489 C 213.104 63.931,213.999 63.963,213.988 64.541 M182.698 69.552 C 180.365 71.987,180.581 72.340,184.110 71.854 C 186.880 71.473,187.356 71.591,188.776 73.012 L 190.358 74.594 190.358 71.930 C 190.358 69.365,190.293 69.276,188.612 69.523 C 187.518 69.684,186.559 69.411,186.047 68.793 C 184.941 67.461,184.635 67.530,182.698 69.552 M177.506 71.195 C 177.731 71.782,177.916 72.521,177.916 72.835 C 177.916 73.149,178.510 73.406,179.236 73.406 C 180.456 73.406,180.487 73.302,179.649 72.040 C 178.498 70.307,176.927 69.687,177.506 71.195 M154.277 96.112 C 154.277 97.425,154.567 97.667,156.143 97.667 C 158.100 97.667,158.591 96.631,157.263 95.303 C 155.923 93.964,154.277 94.410,154.277 96.112 M200.311 106.948 C 200.311 108.288,200.476 109.816,200.679 110.343 C 201.235 111.792,197.873 112.492,196.880 111.134 C 196.468 110.570,195.811 110.109,195.421 110.109 C 193.851 110.109,194.852 107.693,197.045 106.187 C 200.137 104.063,200.311 104.104,200.311 106.948 M193.575 113.627 C 195.587 115.448,195.058 116.930,192.540 116.521 C 191.220 116.307,190.000 116.474,189.430 116.947 C 188.627 117.614,188.491 117.443,188.491 115.764 C 188.491 114.310,188.854 113.655,189.891 113.239 C 191.897 112.433,192.302 112.475,193.575 113.627 M122.802 116.571 C 122.352 117.745,122.884 119.440,123.703 119.440 C 124.686 119.440,124.951 117.031,124.049 116.283 C 123.381 115.729,123.101 115.793,122.802 116.571 M149.922 120.321 C 149.922 120.863,150.365 121.306,150.907 121.306 C 151.449 121.306,151.781 120.974,151.646 120.568 C 151.261 119.414,149.922 119.223,149.922 120.321 M301.089 121.234 C 301.089 121.536,300.529 121.930,299.844 122.109 C 299.036 122.320,298.600 122.128,298.600 121.559 C 298.600 121.078,299.160 120.684,299.844 120.684 C 300.529 120.684,301.089 120.932,301.089 121.234 M123.297 126.090 C 122.662 127.318,122.767 138.839,123.450 142.879 C 123.713 144.439,123.522 146.782,122.946 149.057 C 120.986 156.790,121.291 168.227,123.401 166.117 C 125.450 164.068,130.016 167.644,130.016 171.300 C 130.016 174.104,131.126 174.795,132.637 172.930 L 133.812 171.478 136.579 172.823 L 139.347 174.167 139.347 172.357 C 139.347 171.310,140.036 169.727,140.982 168.603 L 142.618 166.659 141.293 165.249 C 139.621 163.469,139.587 160.529,141.213 158.462 C 142.780 156.470,142.778 155.737,141.205 154.895 C 140.237 154.377,140.090 153.970,140.554 153.102 C 142.040 150.325,139.291 149.915,135.980 152.420 C 133.103 154.597,132.603 154.354,130.657 149.830 C 129.599 147.371,129.386 146.015,129.699 143.738 C 130.021 141.398,129.843 140.370,128.813 138.623 C 128.103 137.421,127.025 133.963,126.417 130.939 C 125.308 125.426,124.383 123.988,123.297 126.090 M144.613 135.684 C 144.005 137.598,145.461 138.760,147.266 137.803 L 148.654 137.067 147.397 135.719 C 145.820 134.026,145.141 134.017,144.613 135.684 M88.109 137.905 C 85.813 139.109,86.788 140.364,89.174 139.277 C 90.082 138.863,90.824 138.307,90.824 138.040 C 90.824 137.049,89.837 137.000,88.109 137.905 M78.797 137.895 C 77.469 139.223,78.397 140.610,79.938 139.601 C 80.793 139.040,81.493 138.334,81.493 138.031 C 81.493 137.390,79.407 137.285,78.797 137.895 M98.289 141.213 C 97.923 141.897,97.098 142.457,96.455 142.457 C 95.802 142.457,94.439 143.610,93.366 145.068 C 91.213 147.997,91.026 148.678,92.379 148.678 C 93.098 148.678,93.313 149.481,93.313 152.176 C 93.313 155.371,93.403 155.600,94.354 154.820 C 95.281 154.059,95.355 154.119,95.034 155.365 C 94.620 156.973,94.980 157.121,96.374 155.917 C 98.096 154.430,104.992 152.466,107.223 152.828 C 109.020 153.120,109.359 152.967,109.685 151.719 C 110.535 148.469,108.756 146.250,106.998 148.367 C 106.092 149.459,105.766 149.497,104.510 148.657 C 103.695 148.112,103.717 147.925,104.680 147.188 C 105.707 146.401,105.636 146.214,103.647 144.468 C 102.036 143.054,101.688 142.418,102.228 141.878 C 102.769 141.337,102.717 141.017,102.017 140.575 C 100.511 139.623,99.002 139.881,98.289 141.213 M81.086 141.551 C 80.550 142.947,81.190 143.285,82.768 142.441 C 83.866 141.853,83.973 141.590,83.288 141.156 C 82.043 140.367,81.503 140.464,81.086 141.551 M75.071 157.015 C 74.886 157.495,74.884 158.036,75.065 158.217 C 75.636 158.788,77.138 157.914,77.138 157.010 C 77.138 155.881,75.504 155.885,75.071 157.015 M100.568 162.200 C 99.894 163.290,102.373 166.240,103.162 165.289 C 103.715 164.622,103.544 164.124,102.391 163.040 C 101.576 162.275,100.755 161.897,100.568 162.200 M93.561 167.059 C 93.342 167.930,93.352 168.832,93.583 169.062 C 94.123 169.603,95.157 167.974,95.169 166.563 C 95.184 164.904,94.011 165.265,93.561 167.059 M115.784 172.162 C 115.921 176.449,115.721 178.052,114.840 179.711 L 113.722 181.818 115.359 183.133 C 116.994 184.446,116.995 184.452,116.048 187.558 C 114.977 191.069,114.808 192.779,115.621 191.882 C 116.453 190.964,118.745 181.026,118.125 181.026 C 117.822 181.026,117.592 179.697,117.613 178.072 C 117.648 175.447,117.723 175.290,118.285 176.672 C 118.912 178.214,118.930 178.203,120.395 175.428 C 122.277 171.862,122.555 167.203,120.791 168.799 C 119.194 170.244,118.283 170.082,117.829 168.274 C 116.833 164.303,115.606 166.633,115.784 172.162 M135.682 167.807 C 134.577 169.817,133.166 171.391,133.146 170.636 C 133.109 169.228,134.569 166.719,135.425 166.719 C 136.053 166.719,136.121 167.008,135.682 167.807 M141.763 169.859 C 140.216 171.523,140.185 171.682,141.141 173.113 C 142.352 174.925,143.414 174.677,144.648 172.292 C 146.790 168.148,144.865 166.525,141.763 169.859 M104.513 172.784 C 104.520 175.178,107.312 177.634,109.100 176.820 C 110.997 175.955,111.056 176.105,109.782 178.569 C 108.880 180.313,108.896 180.404,110.108 180.404 C 111.544 180.404,112.597 178.277,112.597 175.375 C 112.597 173.711,112.446 173.576,110.992 173.941 C 109.861 174.224,108.857 173.952,107.596 173.019 C 105.419 171.410,104.509 171.341,104.513 172.784 M98.045 173.301 C 97.409 174.958,97.661 177.544,98.574 178.750 C 99.749 180.300,102.022 179.585,102.022 177.667 C 102.022 175.746,101.364 175.238,100.468 176.465 C 100.005 177.097,99.573 177.239,99.326 176.839 C 99.107 176.485,99.475 175.501,100.144 174.651 C 100.812 173.801,101.181 172.928,100.965 172.712 C 100.213 171.960,98.421 172.322,98.045 173.301 M130.751 178.072 C 130.040 179.912,129.910 179.989,129.298 178.930 C 128.494 177.538,127.552 178.576,127.537 180.871 C 127.529 182.064,127.857 182.271,129.756 182.271 C 131.268 182.271,131.899 182.020,131.717 181.493 C 131.569 181.065,132.100 180.280,132.897 179.747 C 134.243 178.847,134.277 178.683,133.389 177.414 C 132.105 175.581,131.672 175.689,130.751 178.072 M140.191 198.764 C 139.524 200.501,141.195 201.764,142.544 200.543 C 143.421 199.750,143.530 199.299,143.001 198.661 C 142.074 197.544,140.639 197.597,140.191 198.764 M191.434 198.876 C 191.556 199.241,190.804 199.665,189.764 199.818 C 187.957 200.083,187.919 200.043,188.914 198.944 C 189.993 197.751,191.050 197.723,191.434 198.876 M86.781 199.759 C 85.412 200.386,84.012 201.013,83.670 201.152 C 83.327 201.292,83.533 201.914,84.129 202.539 C 85.173 203.634,85.254 203.626,86.486 202.303 C 87.188 201.550,88.311 200.933,88.982 200.933 C 90.151 200.933,90.706 199.422,89.736 198.879 C 89.479 198.736,88.149 199.131,86.781 199.759 M322.391 208.189 C 321.083 208.717,322.199 209.642,324.142 209.642 C 325.354 209.642,325.972 209.327,325.972 208.709 C 325.972 207.794,324.061 207.516,322.391 208.189 M309.317 209.948 C 309.426 211.140,309.878 211.883,310.575 212.015 C 312.017 212.289,311.953 211.361,310.406 209.556 L 309.147 208.087 309.317 209.948 M85.968 213.413 C 84.960 215.028,85.029 218.143,86.083 218.547 C 88.094 219.319,89.143 215.421,87.504 213.266 C 86.769 212.299,86.657 212.310,85.968 213.413 M179.445 215.454 C 176.580 218.319,176.635 220.181,179.680 223.446 L 182.067 226.005 184.035 224.549 C 187.290 222.143,186.590 215.976,182.835 213.966 C 181.796 213.410,181.249 213.650,179.445 215.454 M217.849 218.391 C 216.190 221.048,217.179 225.180,218.960 223.033 C 219.630 222.226,219.936 222.228,221.524 223.049 L 223.328 223.982 223.328 221.802 C 223.328 218.887,219.159 216.293,217.849 218.391 M135.621 218.654 C 134.918 219.501,134.946 219.816,135.800 220.670 C 136.732 221.602,136.844 221.602,137.199 220.677 C 137.857 218.961,136.650 217.414,135.621 218.654 M254.808 224.046 C 254.118 225.032,254.037 225.700,254.504 226.573 C 255.455 228.349,256.585 227.571,256.803 224.991 C 257.020 222.424,256.212 222.042,254.808 224.046 M257.794 249.075 C 257.389 250.132,257.934 251.322,258.824 251.322 C 259.608 251.322,259.574 249.009,258.783 248.520 C 258.438 248.307,257.993 248.557,257.794 249.075 M201.606 253.715 C 201.183 254.505,201.215 255.088,201.709 255.581 C 202.691 256.563,204.870 256.514,204.407 255.521 C 204.207 255.093,203.872 254.253,203.660 253.655 C 203.164 252.248,202.379 252.271,201.606 253.715 M157.215 263.521 C 156.392 264.345,156.751 265.578,158.009 266.252 C 158.967 266.764,159.253 266.725,159.253 266.082 C 159.253 264.881,157.747 262.989,157.215 263.521 M200.589 266.928 C 199.984 267.906,201.291 268.975,202.517 268.504 C 203.365 268.179,203.417 267.929,202.793 267.178 C 201.883 266.081,201.163 265.999,200.589 266.928 M293.416 281.597 C 292.722 282.291,292.952 283.048,293.859 283.048 C 294.330 283.048,295.064 282.628,295.490 282.115 C 296.301 281.138,294.360 280.652,293.416 281.597 M226.231 283.314 C 225.828 284.363,227.385 285.899,227.940 285.001 C 228.383 284.284,227.749 282.426,227.061 282.426 C 226.792 282.426,226.418 282.826,226.231 283.314 M255.954 297.410 C 255.313 298.448,256.755 299.637,257.613 298.779 C 258.331 298.061,257.882 296.734,256.921 296.734 C 256.619 296.734,256.184 297.038,255.954 297.410 M223.338 304.044 C 223.360 305.117,224.486 306.192,225.155 305.779 C 225.702 305.441,225.700 305.120,225.148 304.455 C 224.368 303.514,223.322 303.277,223.338 304.044 M233.686 310.711 C 233.201 311.974,234.381 312.559,235.515 311.617 C 236.265 310.995,236.291 310.739,235.644 310.329 C 234.489 309.596,234.084 309.675,233.686 310.711 " stroke="none" fill="transparent" fill-rule="evenodd"></path></g></svg>