<svg id="svg" version="1.1" width="500" height="500" xmlns="http://www.w3.org/2000/svg" xmlns:xlink="http://www.w3.org/1999/xlink" style="display: block;"><g id="svgg"><path id="path0" d="M68.452 74.316 C 67.892 75.221,69.891 76.008,72.665 75.975 C 74.715 75.950,74.738 75.902,73.247 74.775 C 71.507 73.458,69.123 73.230,68.452 74.316 M108.800 77.559 C 108.800 78.510,121.471 86.462,121.880 85.766 C 122.063 85.455,119.195 83.327,115.506 81.039 C 111.818 78.750,108.800 77.184,108.800 77.559 M81.510 84.600 C 77.576 88.950,77.264 89.921,80.744 86.988 C 84.876 83.504,85.401 83.380,85.744 85.800 C 86.053 87.973,87.108 88.118,88.313 86.153 C 90.469 82.637,84.515 81.277,81.510 84.600 M300.944 87.690 C 298.164 89.266,296.073 90.739,296.297 90.964 C 296.707 91.373,306.400 85.787,306.400 85.142 C 306.400 84.608,306.299 84.655,300.944 87.690 M286.200 87.330 C 284.990 87.772,284.000 88.463,284.000 88.867 C 284.000 90.044,285.280 89.719,287.311 88.027 C 289.433 86.259,289.322 86.190,286.200 87.330 M94.037 90.856 C 92.060 93.873,92.995 95.096,95.061 92.195 C 96.033 90.830,96.502 89.510,96.102 89.263 C 95.702 89.016,94.773 89.733,94.037 90.856 M99.357 98.992 L 96.764 104.400 100.378 100.400 C 103.814 96.597,104.596 94.464,102.776 93.858 C 102.322 93.707,100.784 96.017,99.357 98.992 M104.478 101.336 C 103.777 103.390,103.375 105.242,103.584 105.450 C 103.792 105.659,104.204 105.147,104.499 104.315 C 104.795 103.482,105.505 101.630,106.077 100.200 C 106.650 98.770,106.811 97.600,106.434 97.600 C 106.058 97.600,105.178 99.281,104.478 101.336 M109.806 101.009 C 109.380 101.554,108.598 103.772,108.069 105.938 C 105.819 115.154,99.464 124.759,89.872 133.447 C 84.252 138.537,84.154 138.692,85.375 140.554 C 86.311 141.984,86.513 143.696,86.183 147.429 L 85.744 152.400 87.564 145.268 C 90.465 133.903,93.878 132.812,93.230 143.456 C 92.779 150.849,93.642 148.749,95.243 138.551 C 96.103 133.074,96.435 132.412,100.464 128.151 L 104.766 123.600 104.297 126.400 C 104.040 127.940,103.307 131.310,102.669 133.888 C 100.594 142.285,102.053 139.445,105.593 128.199 C 110.154 113.709,111.523 110.639,114.804 107.544 L 117.552 104.953 114.976 103.020 C 111.096 100.108,110.647 99.933,109.806 101.009 M302.400 102.204 C 302.400 102.644,302.940 103.452,303.600 104.000 C 304.269 104.556,304.800 104.642,304.800 104.196 C 304.800 103.756,304.260 102.948,303.600 102.400 C 302.931 101.844,302.400 101.758,302.400 102.204 M112.496 106.703 C 112.217 107.815,111.098 109.731,110.010 110.962 L 108.032 113.200 109.807 108.231 C 111.503 103.486,113.603 102.292,112.496 106.703 M299.200 109.200 C 300.562 111.180,301.840 112.800,302.038 112.800 C 303.078 112.800,302.149 110.224,300.329 108.061 C 297.184 104.324,296.394 105.121,299.200 109.200 M118.358 108.511 C 117.205 111.542,118.050 111.797,119.562 108.874 C 120.311 107.424,120.493 106.400,120.001 106.400 C 119.539 106.400,118.799 107.350,118.358 108.511 M364.257 108.261 C 361.433 109.304,360.016 110.400,361.492 110.400 C 362.791 110.400,368.000 108.192,368.000 107.641 C 368.000 107.036,367.226 107.164,364.257 108.261 M292.000 108.348 C 292.000 109.960,293.795 112.925,294.404 112.316 C 295.439 111.281,294.453 108.000,293.107 108.000 C 292.498 108.000,292.000 108.157,292.000 108.348 M365.800 110.629 C 364.810 111.077,364.000 111.774,364.000 112.176 C 364.000 112.798,367.024 112.310,367.883 111.551 C 368.906 110.646,367.316 109.942,365.800 110.629 M126.911 113.400 C 126.290 114.610,123.732 120.820,121.227 127.200 C 111.889 150.982,100.246 172.137,86.015 191.180 C 76.517 203.890,76.528 205.347,86.040 194.444 C 92.735 186.770,95.517 184.419,93.548 188.097 C 93.033 189.060,92.987 189.579,93.442 189.297 C 98.067 186.439,129.600 119.753,129.600 112.830 C 129.600 110.522,128.242 110.810,126.911 113.400 M28.000 113.475 C 28.000 114.323,32.832 116.234,33.441 115.626 C 33.650 115.416,32.820 114.864,31.596 114.398 C 30.371 113.933,29.061 113.362,28.685 113.129 C 28.308 112.896,28.000 113.052,28.000 113.475 M284.000 113.435 C 284.000 113.858,284.582 114.687,285.292 115.277 C 286.410 116.204,286.545 116.146,286.292 114.841 C 285.991 113.286,284.000 112.065,284.000 113.435 M104.738 119.138 C 103.736 120.922,102.771 122.237,102.594 122.061 C 102.417 121.884,103.105 120.292,104.123 118.523 C 105.141 116.754,106.106 115.439,106.268 115.601 C 106.429 115.763,105.741 117.354,104.738 119.138 M276.800 116.630 C 276.800 124.263,311.578 193.976,312.801 188.795 C 313.174 187.214,314.142 188.038,320.672 195.496 C 331.948 208.376,331.740 207.804,318.099 188.406 C 299.921 162.555,288.234 141.554,282.395 124.247 C 279.838 116.668,276.800 112.532,276.800 116.630 M138.628 117.800 C 138.205 118.350,136.125 123.300,134.006 128.800 C 125.119 151.862,114.355 170.413,99.191 188.800 C 88.445 201.831,86.733 204.129,88.188 203.571 C 90.921 202.522,108.262 181.767,114.794 171.727 C 119.498 164.497,141.600 120.210,141.600 118.014 C 141.600 116.547,139.695 116.410,138.628 117.800 M265.048 120.507 C 263.892 123.519,289.641 171.565,298.003 182.000 C 304.140 189.658,316.740 203.200,317.728 203.200 C 318.590 203.200,318.348 202.886,304.821 186.431 C 289.666 167.994,281.534 154.251,272.416 131.666 C 267.689 119.957,266.152 117.630,265.048 120.507 M28.000 120.331 C 28.000 121.148,35.984 125.473,36.362 124.861 C 36.813 124.132,34.639 122.565,30.962 120.971 C 28.565 119.931,28.000 119.809,28.000 120.331 M145.828 120.944 C 141.904 125.757,142.000 124.046,142.000 189.200 C 142.000 234.237,141.757 250.412,141.063 251.589 C 139.071 254.963,138.803 247.354,138.944 191.600 L 139.087 134.800 137.180 138.400 L 135.272 142.000 135.156 200.000 C 135.044 256.432,134.874 261.763,133.200 261.632 C 131.094 261.468,130.848 255.161,130.954 204.108 C 131.038 163.701,130.841 151.238,130.132 151.947 C 129.452 152.627,129.062 167.390,128.688 206.639 C 128.209 256.879,127.929 264.000,126.431 264.000 C 125.408 264.000,124.806 242.234,124.794 204.800 C 124.788 184.780,124.558 167.040,124.283 165.377 L 123.783 162.354 122.492 164.177 C 121.357 165.779,121.151 170.967,120.800 206.934 C 120.580 229.448,120.130 248.138,119.800 248.467 C 118.245 250.021,117.973 245.428,117.600 211.200 C 117.187 173.382,117.048 171.653,114.765 176.067 C 113.532 178.452,113.461 181.552,113.968 211.142 C 114.538 244.376,113.984 254.234,111.047 263.200 L 110.129 266.000 109.390 263.600 C 108.983 262.280,108.458 244.550,108.223 224.200 C 107.989 203.850,107.526 187.200,107.196 187.200 C 105.106 187.200,104.770 190.697,104.130 219.085 C 103.762 235.432,103.221 249.045,102.930 249.337 C 101.482 250.784,101.180 246.620,100.943 221.934 C 100.798 206.972,100.371 195.200,99.971 195.200 C 97.960 195.200,97.600 199.439,97.600 223.136 C 97.600 244.422,97.361 249.496,95.927 258.589 C 93.028 276.975,92.280 273.759,91.599 240.000 C 90.781 199.373,89.320 195.125,88.437 230.800 C 86.822 296.000,86.855 295.227,85.621 295.988 C 84.972 296.389,81.912 297.157,78.821 297.695 C 73.362 298.646,73.276 298.697,75.832 299.462 C 77.753 300.037,80.944 299.861,87.654 298.809 C 100.407 296.809,124.000 298.397,124.000 301.254 C 124.000 302.654,123.494 302.665,130.548 301.111 C 136.627 299.773,148.800 299.129,148.800 300.146 C 148.800 300.467,150.197 300.236,151.904 299.634 C 156.921 297.864,177.188 297.034,176.578 298.624 C 176.142 299.762,176.370 299.762,179.049 298.627 C 182.737 297.064,267.970 297.777,284.685 299.510 C 292.886 300.361,295.641 300.350,300.864 299.448 C 308.245 298.174,334.253 298.294,333.600 299.600 C 333.380 300.040,332.592 300.374,331.848 300.342 C 330.728 300.293,330.831 300.682,332.448 302.603 C 334.720 305.303,334.991 306.358,335.459 314.355 C 335.918 322.185,337.438 323.682,344.000 322.770 C 349.248 322.041,354.519 322.054,358.529 322.808 C 361.029 323.278,361.596 323.103,362.390 321.619 C 363.263 319.987,363.211 319.938,361.545 320.829 C 359.336 322.012,353.899 320.453,352.751 318.308 C 352.311 317.486,351.952 297.250,351.885 269.453 C 351.822 243.354,351.552 207.960,351.285 190.800 L 350.800 159.600 350.095 201.200 C 349.707 224.080,349.560 259.813,349.768 280.607 C 350.079 311.609,349.954 318.574,349.074 319.305 C 348.265 319.976,347.991 319.925,347.963 319.098 C 347.943 318.494,347.959 282.374,347.999 238.831 C 348.039 195.288,347.854 159.879,347.588 160.145 C 347.323 160.411,346.766 178.217,346.351 199.714 C 345.936 221.211,345.240 248.340,344.806 260.000 C 343.763 287.956,343.793 307.758,344.886 312.853 C 346.082 318.427,345.042 320.805,341.417 320.788 C 335.782 320.761,336.359 326.045,335.870 270.000 L 335.633 242.800 335.216 269.113 C 334.731 299.816,335.479 297.620,325.971 296.250 C 317.545 295.036,317.996 296.153,318.026 276.559 C 318.050 260.850,318.242 258.607,320.626 246.117 C 324.420 226.246,324.166 209.600,320.070 209.600 C 319.719 209.600,319.205 212.029,318.927 214.998 C 318.410 220.536,314.730 235.000,313.492 236.360 C 313.100 236.791,312.779 231.767,312.751 224.760 C 312.678 206.703,311.369 196.992,309.311 199.253 C 309.138 199.444,308.404 213.100,307.680 229.600 C 306.319 260.650,305.922 265.600,304.793 265.600 C 303.519 265.600,303.052 261.138,301.187 231.200 C 299.779 208.601,299.718 201.829,300.881 197.211 C 301.801 193.558,300.855 188.623,299.018 187.488 C 298.529 187.185,298.382 187.323,298.679 187.804 C 298.968 188.272,298.843 194.659,298.400 201.997 C 296.961 225.863,295.611 224.789,294.756 199.099 C 294.221 182.997,292.696 174.238,290.763 176.170 C 290.585 176.349,290.374 189.254,290.296 204.848 C 290.132 237.479,289.456 253.666,287.983 260.200 C 285.305 272.077,284.731 263.989,284.496 211.087 C 284.307 168.560,284.229 166.473,282.749 164.287 C 281.205 162.008,281.199 162.139,280.768 204.000 C 280.296 249.898,280.413 247.133,279.001 245.721 C 278.223 244.943,278.034 234.994,278.144 200.779 C 278.279 158.706,278.221 156.758,276.769 155.018 C 275.274 153.225,275.253 153.535,275.219 177.200 C 275.121 245.261,274.184 264.825,271.248 260.077 C 269.848 257.813,269.380 234.500,269.827 189.301 C 270.242 147.319,269.965 137.768,268.379 139.354 C 268.172 139.561,267.912 168.321,267.801 203.265 C 267.638 254.676,267.395 267.160,266.526 268.686 C 263.742 273.573,263.604 270.446,263.421 198.267 C 263.203 111.987,264.794 119.977,248.677 124.258 C 220.251 131.808,174.157 131.112,154.354 122.834 C 147.196 119.841,146.799 119.753,145.828 120.944 M361.982 124.032 C 355.290 127.790,355.671 128.190,362.623 124.705 C 368.130 121.945,368.421 121.754,367.915 121.248 C 367.722 121.055,365.052 122.308,361.982 124.032 M149.824 130.859 C 151.578 139.076,149.798 259.200,147.922 259.200 C 146.057 259.200,144.780 132.979,146.600 128.533 C 147.529 126.266,149.082 127.386,149.824 130.859 M260.400 195.840 C 260.400 258.009,260.042 269.427,258.241 264.800 C 257.277 262.326,256.913 136.960,257.856 132.496 C 260.020 122.251,260.400 131.708,260.400 195.840 M245.197 170.624 C 246.239 236.418,244.860 266.725,241.000 262.867 C 239.835 261.703,240.282 135.868,241.460 133.200 C 244.110 127.198,244.585 131.947,245.197 170.624 M252.459 136.592 C 253.112 141.818,252.111 239.973,251.393 241.135 C 249.801 243.711,248.601 144.153,250.113 135.000 C 250.831 130.658,251.799 131.315,252.459 136.592 M159.143 136.200 C 160.839 142.262,159.991 249.154,158.233 250.911 C 155.427 253.715,154.912 249.441,154.572 220.523 C 154.262 194.104,155.530 135.008,156.439 133.537 C 157.362 132.044,158.216 132.884,159.143 136.200 M181.601 135.601 C 183.791 137.932,183.686 135.348,182.908 168.000 C 181.830 213.221,179.671 205.950,177.174 148.690 C 176.481 132.779,177.134 130.846,181.601 135.601 M235.496 135.400 C 236.523 139.235,235.138 248.328,234.048 249.419 C 232.487 250.979,231.688 139.963,233.225 135.121 C 233.875 133.074,234.906 133.201,235.496 135.400 M173.665 149.200 C 176.432 189.648,174.565 259.692,170.879 253.728 C 168.593 250.029,168.609 143.938,170.897 136.059 L 171.460 134.118 172.180 136.059 C 172.575 137.127,173.244 143.040,173.665 149.200 M218.123 138.865 C 219.199 143.448,219.516 248.302,218.473 254.639 C 217.827 258.569,216.499 260.766,215.422 259.689 C 214.442 258.709,213.529 137.628,214.488 135.836 C 215.768 133.445,217.115 134.567,218.123 138.865 M227.302 135.723 C 228.205 136.810,228.439 146.996,228.621 193.021 C 228.852 251.429,228.787 252.823,225.446 261.109 L 224.516 263.418 223.720 261.509 C 222.572 258.754,221.990 139.501,223.111 136.600 C 224.073 134.110,225.683 133.772,227.302 135.723 M191.514 136.465 C 192.474 138.966,192.052 247.134,191.062 252.508 C 190.288 256.707,188.097 259.895,187.975 257.000 C 187.961 256.670,187.461 252.752,186.864 248.293 C 185.201 235.870,187.102 146.930,189.242 137.000 C 189.693 134.908,190.816 134.644,191.514 136.465 M165.321 196.000 C 165.094 221.844,164.612 240.577,164.138 242.000 C 163.449 244.067,163.319 243.567,163.205 238.400 C 162.859 222.795,163.282 155.231,163.783 146.000 L 164.347 135.600 165.025 144.000 C 165.398 148.620,165.532 172.020,165.321 196.000 M209.701 142.063 C 210.500 150.906,210.486 250.400,209.686 250.400 C 207.974 250.400,207.666 245.583,207.128 210.400 C 206.816 189.940,206.290 165.628,205.960 156.372 C 205.507 143.695,205.599 139.096,206.334 137.724 C 207.973 134.662,209.171 136.206,209.701 142.063 M306.839 151.800 C 311.866 167.468,317.278 180.293,318.535 179.517 C 318.894 179.295,318.517 177.783,317.696 176.156 C 315.404 171.612,304.800 142.500,304.800 140.749 C 304.800 136.270,309.944 141.286,310.824 146.624 C 311.746 152.218,312.749 152.905,312.776 147.960 C 312.789 145.518,313.205 143.115,313.700 142.620 C 314.531 141.789,304.741 136.000,302.505 136.000 C 302.101 136.000,304.051 143.110,306.839 151.800 M201.099 137.827 C 203.235 139.389,201.360 240.318,199.084 246.306 C 197.142 251.413,196.824 243.907,196.812 192.665 C 196.799 133.020,196.676 134.593,201.099 137.827 M361.860 140.299 C 354.267 144.822,348.999 146.509,340.935 147.001 C 332.923 147.490,333.217 146.957,334.596 158.497 L 335.684 167.600 336.255 159.253 C 336.570 154.662,337.001 150.732,337.214 150.520 C 338.929 148.805,339.017 156.146,338.582 264.100 C 338.395 310.552,338.752 321.508,340.322 317.600 C 340.587 316.940,340.893 279.140,341.002 233.600 L 341.200 150.800 345.400 150.790 C 348.432 150.784,349.600 151.086,349.600 151.879 C 349.600 152.540,350.201 152.235,351.108 151.115 C 352.319 149.620,352.844 149.440,353.767 150.207 C 354.597 150.896,355.161 150.919,355.789 150.291 C 356.891 149.189,358.390 150.073,358.431 151.847 C 358.449 152.591,359.011 151.940,359.682 150.400 C 362.222 144.566,362.446 149.442,362.221 205.767 C 361.938 276.840,362.201 312.593,363.031 315.555 C 363.642 317.735,368.000 320.222,368.000 318.389 C 368.000 318.020,367.486 317.601,366.857 317.459 C 365.878 317.237,365.638 304.766,365.191 231.000 L 364.669 144.800 366.335 144.800 C 367.800 144.800,368.000 144.319,368.000 140.800 C 368.000 138.600,367.910 136.818,367.800 136.840 C 367.690 136.862,365.017 138.419,361.860 140.299 M80.541 140.321 C 80.282 140.996,80.389 141.746,80.780 141.987 C 81.826 142.634,82.713 140.793,81.797 139.877 C 81.284 139.364,80.849 139.518,80.541 140.321 M28.526 144.138 C 28.244 146.482,28.080 164.420,28.160 184.000 L 28.306 219.600 28.839 195.600 C 29.132 182.400,29.486 165.480,29.625 158.000 L 29.878 144.400 30.441 155.600 C 30.751 161.760,31.072 200.640,31.153 242.000 C 31.235 283.360,31.596 316.474,31.956 315.586 C 32.316 314.699,32.648 276.426,32.694 230.536 C 32.770 153.979,33.063 141.763,34.718 146.075 C 35.024 146.873,35.264 186.602,35.251 234.363 L 35.227 321.200 31.613 321.444 C 28.286 321.668,27.321 322.254,28.439 323.372 C 28.680 323.613,30.741 323.397,33.019 322.891 C 39.307 321.495,39.128 325.283,38.476 207.391 C 38.297 175.156,38.393 148.540,38.689 148.244 C 40.533 146.400,41.078 150.588,41.385 168.970 C 41.564 179.657,41.844 188.760,42.006 189.200 C 42.169 189.640,42.286 181.117,42.267 170.260 C 42.230 150.000,42.390 148.586,44.671 148.915 C 45.402 149.020,46.836 148.825,47.859 148.481 C 49.234 148.018,50.007 148.238,50.833 149.327 C 51.447 150.137,51.961 150.391,51.975 149.891 C 52.013 148.516,59.519 147.252,60.690 148.424 C 60.971 148.704,61.295 187.500,61.411 234.637 C 61.535 285.215,61.922 320.642,62.355 321.075 C 64.054 322.774,64.232 311.686,63.766 233.140 C 63.227 142.330,63.050 147.200,66.893 147.200 L 69.600 147.200 69.651 151.800 C 69.713 157.488,70.777 155.385,71.395 148.353 L 71.821 143.506 64.910 144.625 C 54.505 146.310,43.321 145.611,36.800 142.867 C 28.576 139.407,29.104 139.325,28.526 144.138 M317.240 145.800 C 318.415 151.185,319.097 151.756,319.149 147.400 C 319.189 144.085,318.934 143.200,317.936 143.200 C 316.928 143.200,316.787 143.725,317.240 145.800 M98.450 148.195 C 97.896 150.068,95.133 157.685,92.309 165.121 C 87.377 178.113,86.179 182.761,89.433 176.278 C 91.357 172.446,100.296 145.629,99.811 145.145 C 99.616 144.949,99.003 146.322,98.450 148.195 M355.522 164.800 C 355.522 171.620,355.645 174.410,355.795 171.000 C 355.945 167.590,355.945 162.010,355.795 158.600 C 355.645 155.190,355.522 157.980,355.522 164.800 M54.151 165.870 C 53.794 167.558,53.571 203.542,53.656 245.834 C 53.771 302.494,53.573 322.809,52.906 323.031 C 52.408 323.197,51.966 323.213,51.925 323.067 C 51.884 322.920,51.687 287.712,51.486 244.827 C 51.285 201.942,51.015 166.748,50.885 166.619 C 50.756 166.489,50.412 188.257,50.121 214.992 C 49.831 241.726,49.358 276.860,49.072 293.067 L 48.551 322.534 46.476 323.392 C 45.334 323.864,42.871 324.283,41.003 324.325 C 38.860 324.372,37.604 324.769,37.603 325.400 C 37.601 326.164,41.067 326.400,52.277 326.400 L 66.955 326.400 67.418 310.200 C 67.673 301.290,67.603 291.120,67.262 287.600 C 66.802 282.855,66.610 286.608,66.521 302.114 C 66.387 325.357,66.744 324.000,60.763 324.000 C 56.250 324.000,55.934 322.857,57.336 311.587 C 58.339 303.516,58.392 298.268,57.668 278.400 C 56.852 255.998,55.329 196.890,54.968 173.600 C 54.846 165.741,54.623 163.636,54.151 165.870 M329.600 179.019 C 329.600 185.173,329.919 188.903,330.476 189.247 C 331.293 189.752,330.731 170.584,329.901 169.667 C 329.736 169.483,329.600 173.692,329.600 179.019 M74.100 173.700 C 73.286 177.768,73.513 190.400,74.400 190.400 C 74.889 190.400,75.200 186.667,75.200 180.800 C 75.200 170.906,74.964 169.381,74.100 173.700 M335.469 202.400 C 335.469 205.700,335.610 207.050,335.783 205.400 C 335.955 203.750,335.955 201.050,335.783 199.400 C 335.610 197.750,335.469 199.100,335.469 202.400 M66.669 206.400 C 66.669 209.700,66.810 211.050,66.983 209.400 C 67.155 207.750,67.155 205.050,66.983 203.400 C 66.810 201.750,66.669 203.100,66.669 206.400 M80.982 215.519 C 80.092 217.473,80.875 230.171,82.284 236.617 C 83.328 241.397,84.302 229.667,83.598 220.779 C 83.009 213.338,82.470 212.254,80.982 215.519 M45.400 223.926 C 45.070 229.385,44.857 252.425,44.926 275.126 L 45.052 316.400 45.718 291.200 C 46.552 259.663,46.311 208.850,45.400 223.926 M66.713 231.200 C 66.713 237.140,66.839 239.570,66.993 236.600 C 67.147 233.630,67.147 228.770,66.993 225.800 C 66.839 222.830,66.713 225.260,66.713 231.200 M323.766 248.000 C 322.855 251.348,323.206 259.455,324.371 262.000 C 325.609 264.703,326.059 252.188,324.875 248.000 L 324.310 246.000 323.766 248.000 M79.796 249.270 C 78.952 250.115,79.052 261.414,79.909 261.944 C 80.299 262.185,80.834 261.576,81.098 260.591 C 82.118 256.785,81.104 247.963,79.796 249.270 M41.967 284.000 C 41.967 303.140,42.072 310.970,42.199 301.400 C 42.327 291.830,42.327 276.170,42.199 266.600 C 42.072 257.030,41.967 264.860,41.967 284.000 M355.717 261.321 C 355.036 269.380,355.211 301.488,355.969 307.600 C 356.321 310.434,356.613 300.686,356.682 283.800 C 356.803 254.580,356.629 250.537,355.717 261.321 M358.781 278.901 C 358.460 285.336,358.543 296.046,358.966 302.701 C 359.732 314.749,359.736 314.700,359.868 291.000 C 360.013 264.803,359.675 261.031,358.781 278.901 M367.545 288.400 C 367.546 298.960,367.659 303.169,367.798 297.754 C 367.937 292.339,367.936 283.699,367.797 278.554 C 367.658 273.409,367.544 277.840,367.545 288.400 M28.138 303.600 L 28.226 314.000 28.947 304.989 C 29.421 299.053,29.391 295.504,28.858 294.589 C 28.285 293.606,28.075 296.242,28.138 303.600 " stroke="none" fill="#cdb380" fill-rule="evenodd"></path><path id="path1" d="M0.000 200.000 L 0.000 400.000 200.000 400.000 L 400.000 400.000 400.000 200.000 L 400.000 0.000 200.000 0.000 L 0.000 0.000 0.000 200.000 M73.247 74.775 C 74.738 75.902,74.715 75.950,72.665 75.975 C 69.891 76.008,67.892 75.221,68.452 74.316 C 69.123 73.230,71.507 73.458,73.247 74.775 M121.880 85.766 C 121.471 86.462,108.800 78.510,108.800 77.559 C 108.800 77.184,111.818 78.750,115.506 81.039 C 119.195 83.327,122.063 85.455,121.880 85.766 M87.647 83.553 C 88.890 84.476,89.023 84.995,88.313 86.153 C 87.108 88.118,86.053 87.973,85.744 85.800 C 85.401 83.380,84.876 83.504,80.744 86.988 C 77.264 89.921,77.576 88.950,81.510 84.600 C 83.740 82.133,85.363 81.857,87.647 83.553 M306.400 85.142 C 306.400 85.787,296.707 91.373,296.297 90.964 C 296.073 90.739,298.164 89.266,300.944 87.690 C 306.299 84.655,306.400 84.608,306.400 85.142 M287.311 88.027 C 285.280 89.719,284.000 90.044,284.000 88.867 C 284.000 88.463,284.990 87.772,286.200 87.330 C 289.322 86.190,289.433 86.259,287.311 88.027 M95.061 92.195 C 94.088 93.561,93.159 94.278,92.996 93.788 C 92.582 92.547,95.214 88.714,96.102 89.263 C 96.502 89.510,96.033 90.830,95.061 92.195 M103.796 95.266 C 103.904 95.890,102.365 98.200,100.378 100.400 L 96.764 104.400 99.357 98.992 C 101.787 93.928,103.339 92.624,103.796 95.266 M106.077 100.200 C 105.505 101.630,104.795 103.482,104.499 104.315 C 104.204 105.147,103.792 105.659,103.584 105.450 C 103.009 104.875,105.651 97.600,106.434 97.600 C 106.811 97.600,106.650 98.770,106.077 100.200 M114.976 103.020 L 117.552 104.953 114.804 107.544 C 111.523 110.639,110.154 113.709,105.593 128.199 C 102.053 139.445,100.594 142.285,102.669 133.888 C 103.307 131.310,104.040 127.940,104.297 126.400 L 104.766 123.600 100.464 128.151 C 96.435 132.412,96.103 133.074,95.243 138.551 C 93.642 148.749,92.779 150.849,93.230 143.456 C 93.878 132.812,90.465 133.903,87.564 145.268 L 85.744 152.400 86.183 147.429 C 86.513 143.696,86.311 141.984,85.375 140.554 C 84.154 138.692,84.252 138.537,89.872 133.447 C 99.464 124.759,105.819 115.154,108.069 105.938 C 109.659 99.428,109.999 99.284,114.976 103.020 M304.800 104.196 C 304.800 104.642,304.269 104.556,303.600 104.000 C 302.940 103.452,302.400 102.644,302.400 102.204 C 302.400 101.758,302.931 101.844,303.600 102.400 C 304.260 102.948,304.800 103.756,304.800 104.196 M109.807 108.231 L 108.032 113.200 110.010 110.962 C 112.246 108.433,113.355 105.035,112.293 103.973 C 111.879 103.559,110.841 105.337,109.807 108.231 M300.329 108.061 C 302.149 110.224,303.078 112.800,302.038 112.800 C 301.840 112.800,300.562 111.180,299.200 109.200 C 296.394 105.121,297.184 104.324,300.329 108.061 M119.562 108.874 C 118.858 110.235,118.118 111.185,117.919 110.985 C 117.304 110.371,119.107 106.400,120.001 106.400 C 120.493 106.400,120.311 107.424,119.562 108.874 M368.000 107.641 C 368.000 108.192,362.791 110.400,361.492 110.400 C 360.016 110.400,361.433 109.304,364.257 108.261 C 367.226 107.164,368.000 107.036,368.000 107.641 M294.680 109.786 C 295.393 112.512,293.807 113.448,292.830 110.878 C 291.772 108.095,291.781 108.000,293.107 108.000 C 293.715 108.000,294.424 108.804,294.680 109.786 M367.883 111.551 C 367.024 112.310,364.000 112.798,364.000 112.176 C 364.000 111.121,367.537 109.646,367.883 110.556 C 368.039 110.965,368.039 111.413,367.883 111.551 M129.600 112.830 C 129.600 119.753,98.067 186.439,93.442 189.297 C 92.987 189.579,93.033 189.060,93.548 188.097 C 95.517 184.419,92.735 186.770,86.040 194.444 C 76.528 205.347,76.517 203.890,86.015 191.180 C 100.246 172.137,111.889 150.982,121.227 127.200 C 127.424 111.419,129.600 107.683,129.600 112.830 M31.596 114.398 C 32.820 114.864,33.650 115.416,33.441 115.626 C 32.832 116.234,28.000 114.323,28.000 113.475 C 28.000 113.052,28.308 112.896,28.685 113.129 C 29.061 113.362,30.371 113.933,31.596 114.398 M286.292 114.841 C 286.545 116.146,286.410 116.204,285.292 115.277 C 283.763 114.008,283.573 112.524,285.000 113.000 C 285.550 113.183,286.132 114.011,286.292 114.841 M104.123 118.523 C 103.105 120.292,102.417 121.884,102.594 122.061 C 102.771 122.237,103.736 120.922,104.738 119.138 C 105.741 117.354,106.429 115.763,106.268 115.601 C 106.106 115.439,105.141 116.754,104.123 118.523 M282.395 124.247 C 288.234 141.554,299.921 162.555,318.099 188.406 C 331.740 207.804,331.948 208.376,320.672 195.496 C 314.142 188.038,313.174 187.214,312.801 188.795 C 311.578 193.976,276.800 124.263,276.800 116.630 C 276.800 112.532,279.838 116.668,282.395 124.247 M141.600 118.014 C 141.600 120.210,119.498 164.497,114.794 171.727 C 108.262 181.767,90.921 202.522,88.188 203.571 C 86.733 204.129,88.445 201.831,99.191 188.800 C 114.355 170.413,125.119 151.862,134.006 128.800 C 136.125 123.300,138.205 118.350,138.628 117.800 C 139.695 116.410,141.600 116.547,141.600 118.014 M272.416 131.666 C 281.534 154.251,289.666 167.994,304.821 186.431 C 318.348 202.886,318.590 203.200,317.728 203.200 C 316.740 203.200,304.140 189.658,298.003 182.000 C 289.641 171.565,263.892 123.519,265.048 120.507 C 266.152 117.630,267.689 119.957,272.416 131.666 M30.962 120.971 C 34.639 122.565,36.813 124.132,36.362 124.861 C 35.984 125.473,28.000 121.148,28.000 120.331 C 28.000 119.809,28.565 119.931,30.962 120.971 M154.354 122.834 C 174.157 131.112,220.251 131.808,248.677 124.258 C 264.794 119.977,263.203 111.987,263.421 198.267 C 263.604 270.446,263.742 273.573,266.526 268.686 C 267.395 267.160,267.638 254.676,267.801 203.265 C 267.912 168.321,268.172 139.561,268.379 139.354 C 269.965 137.768,270.242 147.319,269.827 189.301 C 269.380 234.500,269.848 257.813,271.248 260.077 C 274.184 264.825,275.121 245.261,275.219 177.200 C 275.253 153.535,275.274 153.225,276.769 155.018 C 278.221 156.758,278.279 158.706,278.144 200.779 C 278.034 234.994,278.223 244.943,279.001 245.721 C 280.413 247.133,280.296 249.898,280.768 204.000 C 281.199 162.139,281.205 162.008,282.749 164.287 C 284.229 166.473,284.307 168.560,284.496 211.087 C 284.686 253.848,285.064 264.800,286.351 264.800 C 288.805 264.800,290.093 245.222,290.296 204.848 C 290.374 189.254,290.585 176.349,290.763 176.170 C 292.696 174.238,294.221 182.997,294.756 199.099 C 295.611 224.789,296.961 225.863,298.400 201.997 C 298.843 194.659,298.968 188.272,298.679 187.804 C 298.382 187.323,298.529 187.185,299.018 187.488 C 300.855 188.623,301.801 193.558,300.881 197.211 C 299.718 201.829,299.779 208.601,301.187 231.200 C 303.052 261.138,303.519 265.600,304.793 265.600 C 305.922 265.600,306.319 260.650,307.680 229.600 C 308.404 213.100,309.138 199.444,309.311 199.253 C 311.369 196.992,312.678 206.703,312.751 224.760 C 312.779 231.767,313.100 236.791,313.492 236.360 C 314.730 235.000,318.410 220.536,318.927 214.998 C 319.205 212.029,319.719 209.600,320.070 209.600 C 324.166 209.600,324.420 226.246,320.626 246.117 C 318.242 258.607,318.050 260.850,318.026 276.559 C 317.996 296.153,317.545 295.036,325.971 296.250 C 335.479 297.620,334.731 299.816,335.216 269.113 L 335.633 242.800 335.870 270.000 C 336.359 326.045,335.782 320.761,341.417 320.788 C 345.042 320.805,346.082 318.427,344.886 312.853 C 343.793 307.758,343.763 287.956,344.806 260.000 C 345.240 248.340,345.936 221.211,346.351 199.714 C 346.766 178.217,347.323 160.411,347.588 160.145 C 347.854 159.879,348.039 195.288,347.999 238.831 C 347.959 282.374,347.943 318.494,347.963 319.098 C 347.991 319.925,348.265 319.976,349.074 319.305 C 349.954 318.574,350.079 311.609,349.768 280.607 C 349.560 259.813,349.707 224.080,350.095 201.200 L 350.800 159.600 351.285 190.800 C 351.552 207.960,351.822 243.354,351.885 269.453 C 351.952 297.250,352.311 317.486,352.751 318.308 C 353.899 320.453,359.336 322.012,361.545 320.829 C 363.211 319.938,363.263 319.987,362.390 321.619 C 361.596 323.103,361.029 323.278,358.529 322.808 C 354.519 322.054,349.248 322.041,344.000 322.770 C 337.438 323.682,335.918 322.185,335.459 314.355 C 334.991 306.358,334.720 305.303,332.448 302.603 C 330.831 300.682,330.728 300.293,331.848 300.342 C 332.592 300.374,333.380 300.040,333.600 299.600 C 334.253 298.294,308.245 298.174,300.864 299.448 C 295.641 300.350,292.886 300.361,284.685 299.510 C 267.970 297.777,182.737 297.064,179.049 298.627 C 176.370 299.762,176.142 299.762,176.578 298.624 C 177.188 297.034,156.921 297.864,151.904 299.634 C 150.197 300.236,148.800 300.467,148.800 300.146 C 148.800 299.129,136.627 299.773,130.548 301.111 C 123.494 302.665,124.000 302.654,124.000 301.254 C 124.000 298.397,100.407 296.809,87.654 298.809 C 80.944 299.861,77.753 300.037,75.832 299.462 C 73.276 298.697,73.362 298.646,78.821 297.695 C 81.912 297.157,84.972 296.389,85.621 295.988 C 86.855 295.227,86.822 296.000,88.437 230.800 C 89.320 195.125,90.781 199.373,91.599 240.000 C 92.280 273.759,93.028 276.975,95.927 258.589 C 97.361 249.496,97.600 244.422,97.600 223.136 C 97.600 199.439,97.960 195.200,99.971 195.200 C 100.371 195.200,100.798 206.972,100.943 221.934 C 101.180 246.620,101.482 250.784,102.930 249.337 C 103.221 249.045,103.762 235.432,104.130 219.085 C 104.770 190.697,105.106 187.200,107.196 187.200 C 107.526 187.200,107.989 203.850,108.223 224.200 C 108.458 244.550,108.983 262.280,109.390 263.600 L 110.129 266.000 111.047 263.200 C 113.984 254.234,114.538 244.376,113.968 211.142 C 113.461 181.552,113.532 178.452,114.765 176.067 C 117.048 171.653,117.187 173.382,117.600 211.200 C 117.973 245.428,118.245 250.021,119.800 248.467 C 120.130 248.138,120.580 229.448,120.800 206.934 C 121.151 170.967,121.357 165.779,122.492 164.177 L 123.783 162.354 124.283 165.377 C 124.558 167.040,124.788 184.780,124.794 204.800 C 124.806 242.234,125.408 264.000,126.431 264.000 C 127.929 264.000,128.209 256.879,128.688 206.639 C 129.062 167.390,129.452 152.627,130.132 151.947 C 130.841 151.238,131.038 163.701,130.954 204.108 C 130.848 255.161,131.094 261.468,133.200 261.632 C 134.874 261.763,135.044 256.432,135.156 200.000 L 135.272 142.000 137.180 138.400 L 139.087 134.800 138.944 191.600 C 138.803 247.354,139.071 254.963,141.063 251.589 C 141.757 250.412,142.000 234.237,142.000 189.200 C 142.000 113.870,141.344 117.395,154.354 122.834 M367.933 121.905 C 367.233 122.546,357.615 127.199,357.023 127.183 C 356.680 127.174,358.912 125.756,361.982 124.032 C 366.518 121.484,369.594 120.385,367.933 121.905 M146.600 128.533 C 144.780 132.979,146.057 259.200,147.922 259.200 C 149.798 259.200,151.578 139.076,149.824 130.859 C 149.082 127.386,147.529 126.266,146.600 128.533 M257.856 132.496 C 256.913 136.960,257.277 262.326,258.241 264.800 C 260.042 269.427,260.400 258.009,260.400 195.840 C 260.400 131.708,260.020 122.251,257.856 132.496 M241.460 133.200 C 240.282 135.868,239.835 261.703,241.000 262.867 C 244.860 266.725,246.239 236.418,245.197 170.624 C 244.585 131.947,244.110 127.198,241.460 133.200 M250.113 135.000 C 248.601 144.153,249.801 243.711,251.393 241.135 C 252.111 239.973,253.112 141.818,252.459 136.592 C 251.799 131.315,250.831 130.658,250.113 135.000 M156.439 133.537 C 155.530 135.008,154.262 194.104,154.572 220.523 C 154.912 249.441,155.427 253.715,158.233 250.911 C 159.991 249.154,160.839 142.262,159.143 136.200 C 158.216 132.884,157.362 132.044,156.439 133.537 M177.144 134.490 C 176.005 136.334,179.322 194.842,180.640 196.160 C 182.032 197.552,183.637 166.082,183.494 140.201 C 183.472 136.139,178.750 131.893,177.144 134.490 M233.225 135.121 C 231.688 139.963,232.487 250.979,234.048 249.419 C 235.138 248.328,236.523 139.235,235.496 135.400 C 234.906 133.201,233.875 133.074,233.225 135.121 M170.897 136.059 C 168.609 143.938,168.593 250.029,170.879 253.728 C 175.364 260.985,176.612 148.020,172.180 136.059 L 171.460 134.118 170.897 136.059 M214.488 135.836 C 213.529 137.628,214.442 258.709,215.422 259.689 C 216.499 260.766,217.827 258.569,218.473 254.639 C 219.516 248.302,219.199 143.448,218.123 138.865 C 217.115 134.567,215.768 133.445,214.488 135.836 M223.111 136.600 C 221.990 139.501,222.572 258.754,223.720 261.509 L 224.516 263.418 225.446 261.109 C 228.787 252.823,228.852 251.429,228.621 193.021 C 228.439 146.996,228.205 136.810,227.302 135.723 C 225.683 133.772,224.073 134.110,223.111 136.600 M189.242 137.000 C 187.102 146.930,185.201 235.870,186.864 248.293 C 187.461 252.752,187.961 256.670,187.975 257.000 C 188.097 259.895,190.288 256.707,191.062 252.508 C 192.052 247.134,192.474 138.966,191.514 136.465 C 190.816 134.644,189.693 134.908,189.242 137.000 M163.783 146.000 C 163.282 155.231,162.859 222.795,163.205 238.400 C 163.319 243.567,163.449 244.067,164.138 242.000 C 165.176 238.888,165.933 155.240,165.025 144.000 L 164.347 135.600 163.783 146.000 M206.334 137.724 C 205.599 139.096,205.507 143.695,205.960 156.372 C 206.290 165.628,206.816 189.940,207.128 210.400 C 207.666 245.583,207.974 250.400,209.686 250.400 C 210.486 250.400,210.500 150.906,209.701 142.063 C 209.171 136.206,207.973 134.662,206.334 137.724 M308.920 138.860 C 313.126 140.978,314.366 141.954,313.700 142.620 C 313.205 143.115,312.789 145.518,312.776 147.960 C 312.749 152.905,311.746 152.218,310.824 146.624 C 309.944 141.286,304.800 136.270,304.800 140.749 C 304.800 142.500,315.404 171.612,317.696 176.156 C 318.517 177.783,318.894 179.295,318.535 179.517 C 317.278 180.293,311.866 167.468,306.839 151.800 C 304.051 143.110,302.101 136.000,302.505 136.000 C 302.909 136.000,305.796 137.287,308.920 138.860 M197.286 138.065 C 196.479 140.168,196.751 245.883,197.566 247.173 C 200.004 251.027,200.601 241.883,201.662 184.427 C 202.458 141.329,202.428 138.799,201.099 137.827 C 199.214 136.449,197.874 136.533,197.286 138.065 M368.000 140.800 C 368.000 144.319,367.800 144.800,366.335 144.800 L 364.669 144.800 365.191 231.000 C 365.638 304.766,365.878 317.237,366.857 317.459 C 367.486 317.601,368.000 318.020,368.000 318.389 C 368.000 320.222,363.642 317.735,363.031 315.555 C 362.201 312.593,361.938 276.840,362.221 205.767 C 362.446 149.442,362.222 144.566,359.682 150.400 C 359.011 151.940,358.449 152.591,358.431 151.847 C 358.390 150.073,356.891 149.189,355.789 150.291 C 355.161 150.919,354.597 150.896,353.767 150.207 C 352.844 149.440,352.319 149.620,351.108 151.115 C 350.201 152.235,349.600 152.540,349.600 151.879 C 349.600 151.086,348.432 150.784,345.400 150.790 L 341.200 150.800 341.002 233.600 C 340.893 279.140,340.587 316.940,340.322 317.600 C 338.752 321.508,338.395 310.552,338.582 264.100 C 339.017 156.146,338.929 148.805,337.214 150.520 C 337.001 150.732,336.570 154.662,336.255 159.253 L 335.684 167.600 334.596 158.497 C 333.217 146.957,332.923 147.490,340.935 147.001 C 348.999 146.509,354.267 144.822,361.860 140.299 C 365.017 138.419,367.690 136.862,367.800 136.840 C 367.910 136.818,368.000 138.600,368.000 140.800 M82.035 141.543 C 81.248 142.816,79.981 141.779,80.541 140.321 C 80.849 139.518,81.284 139.364,81.797 139.877 C 82.228 140.308,82.335 141.058,82.035 141.543 M36.800 142.867 C 43.321 145.611,54.505 146.310,64.910 144.625 L 71.821 143.506 71.395 148.353 C 70.777 155.385,69.713 157.488,69.651 151.800 L 69.600 147.200 66.893 147.200 C 63.050 147.200,63.227 142.330,63.766 233.140 C 64.232 311.686,64.054 322.774,62.355 321.075 C 61.922 320.642,61.535 285.215,61.411 234.637 C 61.295 187.500,60.971 148.704,60.690 148.424 C 59.519 147.252,52.013 148.516,51.975 149.891 C 51.961 150.391,51.447 150.137,50.833 149.327 C 50.007 148.238,49.234 148.018,47.859 148.481 C 46.836 148.825,45.402 149.020,44.671 148.915 C 42.390 148.586,42.230 150.000,42.267 170.260 C 42.286 181.117,42.169 189.640,42.006 189.200 C 41.844 188.760,41.564 179.657,41.385 168.970 C 41.078 150.588,40.533 146.400,38.689 148.244 C 38.393 148.540,38.297 175.156,38.476 207.391 C 39.128 325.283,39.307 321.495,33.019 322.891 C 30.741 323.397,28.680 323.613,28.439 323.372 C 27.321 322.254,28.286 321.668,31.613 321.444 L 35.227 321.200 35.251 234.363 C 35.264 186.602,35.024 146.873,34.718 146.075 C 33.063 141.763,32.770 153.979,32.694 230.536 C 32.648 276.426,32.316 314.699,31.956 315.586 C 31.596 316.474,31.235 283.360,31.153 242.000 C 31.072 200.640,30.751 161.760,30.441 155.600 L 29.878 144.400 29.625 158.000 C 29.486 165.480,29.132 182.400,28.839 195.600 L 28.306 219.600 28.160 184.000 C 28.080 164.420,28.244 146.482,28.526 144.138 C 29.104 139.325,28.576 139.407,36.800 142.867 M319.149 147.400 C 319.097 151.756,318.415 151.185,317.240 145.800 C 316.787 143.725,316.928 143.200,317.936 143.200 C 318.934 143.200,319.189 144.085,319.149 147.400 M95.572 159.350 C 91.126 172.755,88.269 179.736,87.532 178.999 C 87.336 178.803,89.486 172.558,92.309 165.121 C 95.133 157.685,97.896 150.068,98.450 148.195 C 99.003 146.322,99.616 144.949,99.811 145.145 C 100.007 145.340,98.099 151.732,95.572 159.350 M355.795 171.000 C 355.645 174.410,355.522 171.620,355.522 164.800 C 355.522 157.980,355.645 155.190,355.795 158.600 C 355.945 162.010,355.945 167.590,355.795 171.000 M55.972 219.600 C 56.432 238.960,57.195 265.420,57.668 278.400 C 58.392 298.268,58.339 303.516,57.336 311.587 C 55.934 322.857,56.250 324.000,60.763 324.000 C 66.744 324.000,66.387 325.357,66.521 302.114 C 66.610 286.608,66.802 282.855,67.262 287.600 C 67.603 291.120,67.673 301.290,67.418 310.200 L 66.955 326.400 52.277 326.400 C 41.067 326.400,37.601 326.164,37.603 325.400 C 37.604 324.769,38.860 324.372,41.003 324.325 C 42.871 324.283,45.334 323.864,46.476 323.392 L 48.551 322.534 49.072 293.067 C 49.358 276.860,49.831 241.726,50.121 214.992 C 50.412 188.257,50.756 166.489,50.885 166.619 C 51.015 166.748,51.285 201.942,51.486 244.827 C 51.687 287.712,51.884 322.920,51.925 323.067 C 51.966 323.213,52.408 323.197,52.906 323.031 C 53.573 322.809,53.771 302.494,53.656 245.834 C 53.571 203.542,53.794 167.558,54.151 165.870 C 54.623 163.636,54.846 165.741,54.968 173.600 C 55.060 179.540,55.512 200.240,55.972 219.600 M330.777 179.894 C 331.189 186.988,331.104 189.635,330.476 189.247 C 329.919 188.903,329.600 185.173,329.600 179.019 C 329.600 166.821,330.037 167.145,330.777 179.894 M75.200 180.800 C 75.200 186.667,74.889 190.400,74.400 190.400 C 73.513 190.400,73.286 177.768,74.100 173.700 C 74.964 169.381,75.200 170.906,75.200 180.800 M335.783 205.400 C 335.610 207.050,335.469 205.700,335.469 202.400 C 335.469 199.100,335.610 197.750,335.783 199.400 C 335.955 201.050,335.955 203.750,335.783 205.400 M66.983 209.400 C 66.810 211.050,66.669 209.700,66.669 206.400 C 66.669 203.100,66.810 201.750,66.983 203.400 C 67.155 205.050,67.155 207.750,66.983 209.400 M83.598 220.779 C 84.302 229.667,83.328 241.397,82.284 236.617 C 80.875 230.171,80.092 217.473,80.982 215.519 C 82.470 212.254,83.009 213.338,83.598 220.779 M45.718 291.200 L 45.052 316.400 44.926 275.126 C 44.857 252.425,45.070 229.385,45.400 223.926 C 46.311 208.850,46.552 259.663,45.718 291.200 M66.993 236.600 C 66.839 239.570,66.713 237.140,66.713 231.200 C 66.713 225.260,66.839 222.830,66.993 225.800 C 67.147 228.770,67.147 233.630,66.993 236.600 M325.455 257.200 C 325.469 263.931,325.399 264.244,324.371 262.000 C 323.206 259.455,322.855 251.348,323.766 248.000 L 324.310 246.000 324.875 248.000 C 325.186 249.100,325.447 253.240,325.455 257.200 M81.509 255.600 C 81.595 259.568,80.849 262.525,79.909 261.944 C 79.052 261.414,78.952 250.115,79.796 249.270 C 80.581 248.485,81.423 251.597,81.509 255.600 M42.199 301.400 C 42.072 310.970,41.967 303.140,41.967 284.000 C 41.967 264.860,42.072 257.030,42.199 266.600 C 42.327 276.170,42.327 291.830,42.199 301.400 M356.682 283.800 C 356.613 300.686,356.321 310.434,355.969 307.600 C 354.790 298.099,355.239 255.200,356.517 255.200 C 356.673 255.200,356.747 268.070,356.682 283.800 M359.868 291.000 C 359.736 314.700,359.732 314.749,358.966 302.701 C 358.295 292.144,358.799 267.200,359.683 267.200 C 359.857 267.200,359.940 277.910,359.868 291.000 M367.798 297.754 C 367.659 303.169,367.546 298.960,367.545 288.400 C 367.544 277.840,367.658 273.409,367.797 278.554 C 367.936 283.699,367.937 292.339,367.798 297.754 M28.947 304.989 L 28.226 314.000 28.138 303.600 C 28.075 296.242,28.285 293.606,28.858 294.589 C 29.391 295.504,29.421 299.053,28.947 304.989 " stroke="none" fill="transparent" fill-rule="evenodd"></path></g></svg>